%TF.GenerationSoftware,KiCad,Pcbnew,(5.1.4)-1*%
%TF.CreationDate,2020-09-18T17:24:58+08:00*%
%TF.ProjectId,Two-pronged_Approach,54776f2d-7072-46f6-9e67-65645f417070,3.0*%
%TF.SameCoordinates,Original*%
%TF.FileFunction,Legend,Bot*%
%TF.FilePolarity,Positive*%
%FSLAX46Y46*%
G04 Gerber Fmt 4.6, Leading zero omitted, Abs format (unit mm)*
G04 Created by KiCad (PCBNEW (5.1.4)-1) date 2020-09-18 17:24:58*
%MOMM*%
%LPD*%
G04 APERTURE LIST*
%ADD10C,0.300000*%
%ADD11C,0.010000*%
%ADD12C,0.120000*%
%ADD13C,0.150000*%
G04 APERTURE END LIST*
D10*
X119585714Y-108682142D02*
X119985714Y-108682142D01*
X119985714Y-109363095D02*
X119985714Y-108063095D01*
X119414285Y-108063095D01*
X118957142Y-109363095D02*
X118957142Y-108496428D01*
X118957142Y-108063095D02*
X119014285Y-108125000D01*
X118957142Y-108186904D01*
X118900000Y-108125000D01*
X118957142Y-108063095D01*
X118957142Y-108186904D01*
X118385714Y-108496428D02*
X118385714Y-109363095D01*
X118385714Y-108620238D02*
X118328571Y-108558333D01*
X118214285Y-108496428D01*
X118042857Y-108496428D01*
X117928571Y-108558333D01*
X117871428Y-108682142D01*
X117871428Y-109363095D01*
X116785714Y-109363095D02*
X116785714Y-108682142D01*
X116842857Y-108558333D01*
X116957142Y-108496428D01*
X117185714Y-108496428D01*
X117300000Y-108558333D01*
X116785714Y-109301190D02*
X116900000Y-109363095D01*
X117185714Y-109363095D01*
X117300000Y-109301190D01*
X117357142Y-109177380D01*
X117357142Y-109053571D01*
X117300000Y-108929761D01*
X117185714Y-108867857D01*
X116900000Y-108867857D01*
X116785714Y-108805952D01*
X116042857Y-109363095D02*
X116157142Y-109301190D01*
X116214285Y-109177380D01*
X116214285Y-108063095D01*
X113985714Y-109363095D02*
X114385714Y-108744047D01*
X114671428Y-109363095D02*
X114671428Y-108063095D01*
X114214285Y-108063095D01*
X114100000Y-108125000D01*
X114042857Y-108186904D01*
X113985714Y-108310714D01*
X113985714Y-108496428D01*
X114042857Y-108620238D01*
X114100000Y-108682142D01*
X114214285Y-108744047D01*
X114671428Y-108744047D01*
X113014285Y-109301190D02*
X113128571Y-109363095D01*
X113357142Y-109363095D01*
X113471428Y-109301190D01*
X113528571Y-109177380D01*
X113528571Y-108682142D01*
X113471428Y-108558333D01*
X113357142Y-108496428D01*
X113128571Y-108496428D01*
X113014285Y-108558333D01*
X112957142Y-108682142D01*
X112957142Y-108805952D01*
X113528571Y-108929761D01*
X112500000Y-109301190D02*
X112385714Y-109363095D01*
X112157142Y-109363095D01*
X112042857Y-109301190D01*
X111985714Y-109177380D01*
X111985714Y-109115476D01*
X112042857Y-108991666D01*
X112157142Y-108929761D01*
X112328571Y-108929761D01*
X112442857Y-108867857D01*
X112500000Y-108744047D01*
X112500000Y-108682142D01*
X112442857Y-108558333D01*
X112328571Y-108496428D01*
X112157142Y-108496428D01*
X112042857Y-108558333D01*
X111300000Y-109363095D02*
X111414285Y-109301190D01*
X111471428Y-109239285D01*
X111528571Y-109115476D01*
X111528571Y-108744047D01*
X111471428Y-108620238D01*
X111414285Y-108558333D01*
X111300000Y-108496428D01*
X111128571Y-108496428D01*
X111014285Y-108558333D01*
X110957142Y-108620238D01*
X110900000Y-108744047D01*
X110900000Y-109115476D01*
X110957142Y-109239285D01*
X111014285Y-109301190D01*
X111128571Y-109363095D01*
X111300000Y-109363095D01*
X110214285Y-109363095D02*
X110328571Y-109301190D01*
X110385714Y-109177380D01*
X110385714Y-108063095D01*
X109242857Y-108496428D02*
X109242857Y-109363095D01*
X109757142Y-108496428D02*
X109757142Y-109177380D01*
X109700000Y-109301190D01*
X109585714Y-109363095D01*
X109414285Y-109363095D01*
X109300000Y-109301190D01*
X109242857Y-109239285D01*
X108842857Y-108496428D02*
X108385714Y-108496428D01*
X108671428Y-108063095D02*
X108671428Y-109177380D01*
X108614285Y-109301190D01*
X108500000Y-109363095D01*
X108385714Y-109363095D01*
X107985714Y-109363095D02*
X107985714Y-108496428D01*
X107985714Y-108063095D02*
X108042857Y-108125000D01*
X107985714Y-108186904D01*
X107928571Y-108125000D01*
X107985714Y-108063095D01*
X107985714Y-108186904D01*
X107242857Y-109363095D02*
X107357142Y-109301190D01*
X107414285Y-109239285D01*
X107471428Y-109115476D01*
X107471428Y-108744047D01*
X107414285Y-108620238D01*
X107357142Y-108558333D01*
X107242857Y-108496428D01*
X107071428Y-108496428D01*
X106957142Y-108558333D01*
X106900000Y-108620238D01*
X106842857Y-108744047D01*
X106842857Y-109115476D01*
X106900000Y-109239285D01*
X106957142Y-109301190D01*
X107071428Y-109363095D01*
X107242857Y-109363095D01*
X106328571Y-108496428D02*
X106328571Y-109363095D01*
X106328571Y-108620238D02*
X106271428Y-108558333D01*
X106157142Y-108496428D01*
X105985714Y-108496428D01*
X105871428Y-108558333D01*
X105814285Y-108682142D01*
X105814285Y-109363095D01*
X118500000Y-110436904D02*
X118442857Y-110375000D01*
X118328571Y-110313095D01*
X118042857Y-110313095D01*
X117928571Y-110375000D01*
X117871428Y-110436904D01*
X117814285Y-110560714D01*
X117814285Y-110684523D01*
X117871428Y-110870238D01*
X118557142Y-111613095D01*
X117814285Y-111613095D01*
X117071428Y-110313095D02*
X116957142Y-110313095D01*
X116842857Y-110375000D01*
X116785714Y-110436904D01*
X116728571Y-110560714D01*
X116671428Y-110808333D01*
X116671428Y-111117857D01*
X116728571Y-111365476D01*
X116785714Y-111489285D01*
X116842857Y-111551190D01*
X116957142Y-111613095D01*
X117071428Y-111613095D01*
X117185714Y-111551190D01*
X117242857Y-111489285D01*
X117300000Y-111365476D01*
X117357142Y-111117857D01*
X117357142Y-110808333D01*
X117300000Y-110560714D01*
X117242857Y-110436904D01*
X117185714Y-110375000D01*
X117071428Y-110313095D01*
X116214285Y-110436904D02*
X116157142Y-110375000D01*
X116042857Y-110313095D01*
X115757142Y-110313095D01*
X115642857Y-110375000D01*
X115585714Y-110436904D01*
X115528571Y-110560714D01*
X115528571Y-110684523D01*
X115585714Y-110870238D01*
X116271428Y-111613095D01*
X115528571Y-111613095D01*
X114785714Y-110313095D02*
X114671428Y-110313095D01*
X114557142Y-110375000D01*
X114500000Y-110436904D01*
X114442857Y-110560714D01*
X114385714Y-110808333D01*
X114385714Y-111117857D01*
X114442857Y-111365476D01*
X114500000Y-111489285D01*
X114557142Y-111551190D01*
X114671428Y-111613095D01*
X114785714Y-111613095D01*
X114900000Y-111551190D01*
X114957142Y-111489285D01*
X115014285Y-111365476D01*
X115071428Y-111117857D01*
X115071428Y-110808333D01*
X115014285Y-110560714D01*
X114957142Y-110436904D01*
X114900000Y-110375000D01*
X114785714Y-110313095D01*
X113014285Y-110251190D02*
X114042857Y-111922619D01*
X112385714Y-110313095D02*
X112271428Y-110313095D01*
X112157142Y-110375000D01*
X112100000Y-110436904D01*
X112042857Y-110560714D01*
X111985714Y-110808333D01*
X111985714Y-111117857D01*
X112042857Y-111365476D01*
X112100000Y-111489285D01*
X112157142Y-111551190D01*
X112271428Y-111613095D01*
X112385714Y-111613095D01*
X112500000Y-111551190D01*
X112557142Y-111489285D01*
X112614285Y-111365476D01*
X112671428Y-111117857D01*
X112671428Y-110808333D01*
X112614285Y-110560714D01*
X112557142Y-110436904D01*
X112500000Y-110375000D01*
X112385714Y-110313095D01*
X111414285Y-111613095D02*
X111185714Y-111613095D01*
X111071428Y-111551190D01*
X111014285Y-111489285D01*
X110900000Y-111303571D01*
X110842857Y-111055952D01*
X110842857Y-110560714D01*
X110900000Y-110436904D01*
X110957142Y-110375000D01*
X111071428Y-110313095D01*
X111300000Y-110313095D01*
X111414285Y-110375000D01*
X111471428Y-110436904D01*
X111528571Y-110560714D01*
X111528571Y-110870238D01*
X111471428Y-110994047D01*
X111414285Y-111055952D01*
X111300000Y-111117857D01*
X111071428Y-111117857D01*
X110957142Y-111055952D01*
X110900000Y-110994047D01*
X110842857Y-110870238D01*
X109471428Y-110251190D02*
X110500000Y-111922619D01*
X108842857Y-110313095D02*
X108728571Y-110313095D01*
X108614285Y-110375000D01*
X108557142Y-110436904D01*
X108500000Y-110560714D01*
X108442857Y-110808333D01*
X108442857Y-111117857D01*
X108500000Y-111365476D01*
X108557142Y-111489285D01*
X108614285Y-111551190D01*
X108728571Y-111613095D01*
X108842857Y-111613095D01*
X108957142Y-111551190D01*
X109014285Y-111489285D01*
X109071428Y-111365476D01*
X109128571Y-111117857D01*
X109128571Y-110808333D01*
X109071428Y-110560714D01*
X109014285Y-110436904D01*
X108957142Y-110375000D01*
X108842857Y-110313095D01*
X108042857Y-110313095D02*
X107300000Y-110313095D01*
X107700000Y-110808333D01*
X107528571Y-110808333D01*
X107414285Y-110870238D01*
X107357142Y-110932142D01*
X107300000Y-111055952D01*
X107300000Y-111365476D01*
X107357142Y-111489285D01*
X107414285Y-111551190D01*
X107528571Y-111613095D01*
X107871428Y-111613095D01*
X107985714Y-111551190D01*
X108042857Y-111489285D01*
D11*
G36*
X138107862Y-67986715D02*
G01*
X137886081Y-68127907D01*
X137874520Y-68141547D01*
X137727565Y-68445105D01*
X137731859Y-68774872D01*
X137883780Y-69088582D01*
X137963410Y-69179103D01*
X138117574Y-69340890D01*
X138162965Y-69439536D01*
X138110572Y-69531609D01*
X138044989Y-69599011D01*
X137897122Y-69705733D01*
X137794245Y-69717758D01*
X137718252Y-69722159D01*
X137712667Y-69747945D01*
X137780401Y-69853312D01*
X137942031Y-69885410D01*
X138135195Y-69836225D01*
X138183842Y-69808510D01*
X138352562Y-69647169D01*
X138433579Y-69504075D01*
X138477329Y-69402579D01*
X138528482Y-69422619D01*
X138616477Y-69579682D01*
X138630501Y-69607653D01*
X138790850Y-69825629D01*
X138961500Y-69916055D01*
X139109359Y-69916906D01*
X139152000Y-69888841D01*
X139099253Y-69791044D01*
X139033240Y-69715811D01*
X138947237Y-69581914D01*
X138829061Y-69337207D01*
X138702122Y-69030830D01*
X138683183Y-68981025D01*
X138543765Y-68620860D01*
X138440550Y-68395758D01*
X138354905Y-68280575D01*
X138268195Y-68250168D01*
X138162858Y-68278949D01*
X138074092Y-68343723D01*
X138110072Y-68380326D01*
X138197267Y-68476303D01*
X138286575Y-68660508D01*
X138353223Y-68865065D01*
X138372440Y-69022098D01*
X138358151Y-69060071D01*
X138261217Y-69056654D01*
X138127764Y-68946928D01*
X138002137Y-68773363D01*
X137955597Y-68674551D01*
X137929756Y-68443835D01*
X138008703Y-68268905D01*
X138205031Y-68103550D01*
X138464734Y-68077919D01*
X138756826Y-68191134D01*
X138899074Y-68294230D01*
X139079065Y-68478625D01*
X139138447Y-68651781D01*
X139131901Y-68759896D01*
X139137289Y-68950639D01*
X139207384Y-69000000D01*
X139307749Y-68926141D01*
X139379807Y-68747515D01*
X139402122Y-68528549D01*
X139392331Y-68444170D01*
X139271670Y-68229386D01*
X139035000Y-68066700D01*
X138730214Y-67965661D01*
X138405204Y-67935816D01*
X138107862Y-67986715D01*
X138107862Y-67986715D01*
G37*
X138107862Y-67986715D02*
X137886081Y-68127907D01*
X137874520Y-68141547D01*
X137727565Y-68445105D01*
X137731859Y-68774872D01*
X137883780Y-69088582D01*
X137963410Y-69179103D01*
X138117574Y-69340890D01*
X138162965Y-69439536D01*
X138110572Y-69531609D01*
X138044989Y-69599011D01*
X137897122Y-69705733D01*
X137794245Y-69717758D01*
X137718252Y-69722159D01*
X137712667Y-69747945D01*
X137780401Y-69853312D01*
X137942031Y-69885410D01*
X138135195Y-69836225D01*
X138183842Y-69808510D01*
X138352562Y-69647169D01*
X138433579Y-69504075D01*
X138477329Y-69402579D01*
X138528482Y-69422619D01*
X138616477Y-69579682D01*
X138630501Y-69607653D01*
X138790850Y-69825629D01*
X138961500Y-69916055D01*
X139109359Y-69916906D01*
X139152000Y-69888841D01*
X139099253Y-69791044D01*
X139033240Y-69715811D01*
X138947237Y-69581914D01*
X138829061Y-69337207D01*
X138702122Y-69030830D01*
X138683183Y-68981025D01*
X138543765Y-68620860D01*
X138440550Y-68395758D01*
X138354905Y-68280575D01*
X138268195Y-68250168D01*
X138162858Y-68278949D01*
X138074092Y-68343723D01*
X138110072Y-68380326D01*
X138197267Y-68476303D01*
X138286575Y-68660508D01*
X138353223Y-68865065D01*
X138372440Y-69022098D01*
X138358151Y-69060071D01*
X138261217Y-69056654D01*
X138127764Y-68946928D01*
X138002137Y-68773363D01*
X137955597Y-68674551D01*
X137929756Y-68443835D01*
X138008703Y-68268905D01*
X138205031Y-68103550D01*
X138464734Y-68077919D01*
X138756826Y-68191134D01*
X138899074Y-68294230D01*
X139079065Y-68478625D01*
X139138447Y-68651781D01*
X139131901Y-68759896D01*
X139137289Y-68950639D01*
X139207384Y-69000000D01*
X139307749Y-68926141D01*
X139379807Y-68747515D01*
X139402122Y-68528549D01*
X139392331Y-68444170D01*
X139271670Y-68229386D01*
X139035000Y-68066700D01*
X138730214Y-67965661D01*
X138405204Y-67935816D01*
X138107862Y-67986715D01*
G36*
X144107460Y-67988004D02*
G01*
X144108367Y-68125199D01*
X144155155Y-68202822D01*
X144232934Y-68342731D01*
X144342378Y-68600354D01*
X144465453Y-68931532D01*
X144528333Y-69116577D01*
X144654792Y-69484061D01*
X144753367Y-69718300D01*
X144840987Y-69849341D01*
X144934579Y-69907235D01*
X144979189Y-69916888D01*
X145112802Y-69924853D01*
X145120222Y-69864303D01*
X145052282Y-69747555D01*
X144957934Y-69555124D01*
X144849807Y-69274904D01*
X144787409Y-69084667D01*
X144695207Y-68800572D01*
X144608631Y-68566745D01*
X144565432Y-68470834D01*
X144544037Y-68352447D01*
X144621848Y-68319976D01*
X144749872Y-68377419D01*
X144824667Y-68449667D01*
X144966037Y-68565719D01*
X145056394Y-68529995D01*
X145078667Y-68407334D01*
X145117552Y-68262693D01*
X145212283Y-68261390D01*
X145329972Y-68402539D01*
X145336381Y-68414273D01*
X145384971Y-68572778D01*
X145303456Y-68685580D01*
X145298347Y-68689439D01*
X145217587Y-68823202D01*
X145219087Y-68989461D01*
X145288900Y-69119289D01*
X145391456Y-69149529D01*
X145503530Y-69208259D01*
X145640029Y-69396599D01*
X145698725Y-69508000D01*
X145873016Y-69789349D01*
X146049501Y-69911330D01*
X146073500Y-69916055D01*
X146221474Y-69920531D01*
X146264000Y-69898649D01*
X146220604Y-69807808D01*
X146111195Y-69630775D01*
X146052333Y-69542279D01*
X145897232Y-69286640D01*
X145848898Y-69113403D01*
X145899677Y-68980146D01*
X145942267Y-68932267D01*
X145992121Y-68850089D01*
X145901070Y-68830667D01*
X145796243Y-68763770D01*
X145676563Y-68603235D01*
X145575143Y-68409300D01*
X145525095Y-68242199D01*
X145539274Y-68172504D01*
X145640350Y-68160492D01*
X145837876Y-68182031D01*
X145878023Y-68189147D01*
X146110688Y-68279391D01*
X146273352Y-68426762D01*
X146328694Y-68589856D01*
X146305252Y-68663083D01*
X146296638Y-68737351D01*
X146379556Y-68729669D01*
X146500303Y-68645162D01*
X146501067Y-68644400D01*
X146595394Y-68449758D01*
X146570597Y-68232398D01*
X146436577Y-68070605D01*
X146427900Y-68065759D01*
X146243657Y-68015367D01*
X145969391Y-67991395D01*
X145808608Y-67992818D01*
X145533812Y-67991932D01*
X145320572Y-67967019D01*
X145250864Y-67943437D01*
X145110697Y-67940420D01*
X145041403Y-68005082D01*
X144890460Y-68085993D01*
X144662462Y-68088760D01*
X144428105Y-68017960D01*
X144334245Y-67959293D01*
X144195549Y-67915302D01*
X144107460Y-67988004D01*
X144107460Y-67988004D01*
G37*
X144107460Y-67988004D02*
X144108367Y-68125199D01*
X144155155Y-68202822D01*
X144232934Y-68342731D01*
X144342378Y-68600354D01*
X144465453Y-68931532D01*
X144528333Y-69116577D01*
X144654792Y-69484061D01*
X144753367Y-69718300D01*
X144840987Y-69849341D01*
X144934579Y-69907235D01*
X144979189Y-69916888D01*
X145112802Y-69924853D01*
X145120222Y-69864303D01*
X145052282Y-69747555D01*
X144957934Y-69555124D01*
X144849807Y-69274904D01*
X144787409Y-69084667D01*
X144695207Y-68800572D01*
X144608631Y-68566745D01*
X144565432Y-68470834D01*
X144544037Y-68352447D01*
X144621848Y-68319976D01*
X144749872Y-68377419D01*
X144824667Y-68449667D01*
X144966037Y-68565719D01*
X145056394Y-68529995D01*
X145078667Y-68407334D01*
X145117552Y-68262693D01*
X145212283Y-68261390D01*
X145329972Y-68402539D01*
X145336381Y-68414273D01*
X145384971Y-68572778D01*
X145303456Y-68685580D01*
X145298347Y-68689439D01*
X145217587Y-68823202D01*
X145219087Y-68989461D01*
X145288900Y-69119289D01*
X145391456Y-69149529D01*
X145503530Y-69208259D01*
X145640029Y-69396599D01*
X145698725Y-69508000D01*
X145873016Y-69789349D01*
X146049501Y-69911330D01*
X146073500Y-69916055D01*
X146221474Y-69920531D01*
X146264000Y-69898649D01*
X146220604Y-69807808D01*
X146111195Y-69630775D01*
X146052333Y-69542279D01*
X145897232Y-69286640D01*
X145848898Y-69113403D01*
X145899677Y-68980146D01*
X145942267Y-68932267D01*
X145992121Y-68850089D01*
X145901070Y-68830667D01*
X145796243Y-68763770D01*
X145676563Y-68603235D01*
X145575143Y-68409300D01*
X145525095Y-68242199D01*
X145539274Y-68172504D01*
X145640350Y-68160492D01*
X145837876Y-68182031D01*
X145878023Y-68189147D01*
X146110688Y-68279391D01*
X146273352Y-68426762D01*
X146328694Y-68589856D01*
X146305252Y-68663083D01*
X146296638Y-68737351D01*
X146379556Y-68729669D01*
X146500303Y-68645162D01*
X146501067Y-68644400D01*
X146595394Y-68449758D01*
X146570597Y-68232398D01*
X146436577Y-68070605D01*
X146427900Y-68065759D01*
X146243657Y-68015367D01*
X145969391Y-67991395D01*
X145808608Y-67992818D01*
X145533812Y-67991932D01*
X145320572Y-67967019D01*
X145250864Y-67943437D01*
X145110697Y-67940420D01*
X145041403Y-68005082D01*
X144890460Y-68085993D01*
X144662462Y-68088760D01*
X144428105Y-68017960D01*
X144334245Y-67959293D01*
X144195549Y-67915302D01*
X144107460Y-67988004D01*
G36*
X143217938Y-67956611D02*
G01*
X143172783Y-68128649D01*
X143159663Y-68441330D01*
X143172051Y-68856888D01*
X143189375Y-69240379D01*
X143195385Y-69471507D01*
X143187315Y-69567026D01*
X143162399Y-69543689D01*
X143117871Y-69418252D01*
X143092501Y-69338667D01*
X142993826Y-69011372D01*
X142899836Y-68676420D01*
X142881252Y-68605848D01*
X142776073Y-68309688D01*
X142640583Y-68076631D01*
X142499900Y-67940670D01*
X142383841Y-67932700D01*
X142344809Y-68025321D01*
X142429802Y-68197774D01*
X142445990Y-68221338D01*
X142540616Y-68402960D01*
X142659862Y-68697556D01*
X142784089Y-69054654D01*
X142839540Y-69232834D01*
X142949995Y-69569258D01*
X143055678Y-69832943D01*
X143141490Y-69988812D01*
X143176645Y-70016000D01*
X143332154Y-69963242D01*
X143424701Y-69794383D01*
X143458943Y-69493547D01*
X143444282Y-69103584D01*
X143394096Y-68449667D01*
X143629933Y-69101719D01*
X143753787Y-69424060D01*
X143870857Y-69694446D01*
X143959840Y-69864470D01*
X143974585Y-69884885D01*
X144136816Y-70000137D01*
X144294267Y-69994382D01*
X144355384Y-69937184D01*
X144343731Y-69829041D01*
X144313262Y-69802229D01*
X144223947Y-69688104D01*
X144093621Y-69445591D01*
X143937206Y-69106131D01*
X143769625Y-68701164D01*
X143681872Y-68472035D01*
X143635765Y-68365000D01*
X143385333Y-68365000D01*
X143343000Y-68407334D01*
X143300667Y-68365000D01*
X143343000Y-68322667D01*
X143385333Y-68365000D01*
X143635765Y-68365000D01*
X143573290Y-68219968D01*
X143465329Y-68030587D01*
X143420332Y-67977913D01*
X143299124Y-67911078D01*
X143217938Y-67956611D01*
X143217938Y-67956611D01*
G37*
X143217938Y-67956611D02*
X143172783Y-68128649D01*
X143159663Y-68441330D01*
X143172051Y-68856888D01*
X143189375Y-69240379D01*
X143195385Y-69471507D01*
X143187315Y-69567026D01*
X143162399Y-69543689D01*
X143117871Y-69418252D01*
X143092501Y-69338667D01*
X142993826Y-69011372D01*
X142899836Y-68676420D01*
X142881252Y-68605848D01*
X142776073Y-68309688D01*
X142640583Y-68076631D01*
X142499900Y-67940670D01*
X142383841Y-67932700D01*
X142344809Y-68025321D01*
X142429802Y-68197774D01*
X142445990Y-68221338D01*
X142540616Y-68402960D01*
X142659862Y-68697556D01*
X142784089Y-69054654D01*
X142839540Y-69232834D01*
X142949995Y-69569258D01*
X143055678Y-69832943D01*
X143141490Y-69988812D01*
X143176645Y-70016000D01*
X143332154Y-69963242D01*
X143424701Y-69794383D01*
X143458943Y-69493547D01*
X143444282Y-69103584D01*
X143394096Y-68449667D01*
X143629933Y-69101719D01*
X143753787Y-69424060D01*
X143870857Y-69694446D01*
X143959840Y-69864470D01*
X143974585Y-69884885D01*
X144136816Y-70000137D01*
X144294267Y-69994382D01*
X144355384Y-69937184D01*
X144343731Y-69829041D01*
X144313262Y-69802229D01*
X144223947Y-69688104D01*
X144093621Y-69445591D01*
X143937206Y-69106131D01*
X143769625Y-68701164D01*
X143681872Y-68472035D01*
X143635765Y-68365000D01*
X143385333Y-68365000D01*
X143343000Y-68407334D01*
X143300667Y-68365000D01*
X143343000Y-68322667D01*
X143385333Y-68365000D01*
X143635765Y-68365000D01*
X143573290Y-68219968D01*
X143465329Y-68030587D01*
X143420332Y-67977913D01*
X143299124Y-67911078D01*
X143217938Y-67956611D01*
G36*
X139763420Y-67965653D02*
G01*
X139744667Y-68068667D01*
X139775003Y-68206324D01*
X139817000Y-68238000D01*
X139872760Y-68313291D01*
X139957103Y-68513420D01*
X140054374Y-68799772D01*
X140082984Y-68894167D01*
X140178068Y-69213441D01*
X140257181Y-69473803D01*
X140306276Y-69629158D01*
X140312171Y-69646076D01*
X140274224Y-69742992D01*
X140125077Y-69823053D01*
X139922864Y-69869548D01*
X139725719Y-69865761D01*
X139644085Y-69838149D01*
X139520603Y-69790723D01*
X139497942Y-69859160D01*
X139504977Y-69903141D01*
X139603152Y-70015075D01*
X139809498Y-70075583D01*
X140068605Y-70077001D01*
X140316261Y-70015361D01*
X140506220Y-69968450D01*
X140612594Y-69975471D01*
X140762111Y-69973789D01*
X140879325Y-69894205D01*
X140899872Y-69783461D01*
X140893517Y-69771466D01*
X140764414Y-69683367D01*
X140720240Y-69677334D01*
X140634545Y-69600824D01*
X140525586Y-69393761D01*
X140416514Y-69105834D01*
X140317170Y-68806494D01*
X140235820Y-68564369D01*
X140189606Y-68430462D01*
X140188886Y-68428500D01*
X140221925Y-68339604D01*
X140293868Y-68322667D01*
X140429595Y-68393805D01*
X140482135Y-68492000D01*
X140562565Y-68641177D01*
X140669671Y-68631133D01*
X140728677Y-68559931D01*
X140788004Y-68562224D01*
X140865339Y-68691541D01*
X140947587Y-68908453D01*
X141021652Y-69173531D01*
X141074438Y-69447346D01*
X141092772Y-69656167D01*
X141116862Y-69901399D01*
X141183854Y-70006962D01*
X141226333Y-70016000D01*
X141324235Y-69953414D01*
X141365636Y-69756238D01*
X141356646Y-69444500D01*
X141381781Y-69287056D01*
X141476336Y-69260260D01*
X141614161Y-69354977D01*
X141769107Y-69562069D01*
X141788345Y-69595344D01*
X141988891Y-69855615D01*
X142203565Y-69985846D01*
X142401275Y-69987609D01*
X142550932Y-69862478D01*
X142612786Y-69642780D01*
X142369333Y-69642780D01*
X142351565Y-69788199D01*
X142269868Y-69795892D01*
X142200877Y-69762469D01*
X142043192Y-69624339D01*
X141902369Y-69420824D01*
X141826296Y-69245871D01*
X141843409Y-69175847D01*
X141882654Y-69169334D01*
X142095454Y-69239721D01*
X142278530Y-69409405D01*
X142367928Y-69616171D01*
X142369333Y-69642780D01*
X142612786Y-69642780D01*
X142621445Y-69612027D01*
X142623333Y-69553089D01*
X142554792Y-69261337D01*
X142356851Y-69073754D01*
X142132439Y-69021789D01*
X141431036Y-69021789D01*
X141398083Y-69080248D01*
X141362527Y-69084667D01*
X141287942Y-69013411D01*
X141189521Y-68834191D01*
X141150860Y-68744287D01*
X141050487Y-68474926D01*
X141025563Y-68357141D01*
X141076084Y-68390940D01*
X141202043Y-68576333D01*
X141228542Y-68619000D01*
X141376855Y-68876146D01*
X141431036Y-69021789D01*
X142132439Y-69021789D01*
X142041033Y-69000623D01*
X142003557Y-69000000D01*
X141824965Y-68987553D01*
X141697625Y-68926859D01*
X141578090Y-68782888D01*
X141434527Y-68541217D01*
X141277868Y-68281057D01*
X141219120Y-68195667D01*
X141014667Y-68195667D01*
X140972333Y-68238000D01*
X140930000Y-68195667D01*
X140972333Y-68153334D01*
X141014667Y-68195667D01*
X141219120Y-68195667D01*
X141135965Y-68074802D01*
X141056512Y-67983595D01*
X140897547Y-67928684D01*
X140783623Y-68015338D01*
X140760667Y-68125055D01*
X140716039Y-68213713D01*
X140612500Y-68192751D01*
X140415548Y-68129939D01*
X140230464Y-68089264D01*
X140043234Y-68035379D01*
X139950300Y-67974238D01*
X139847143Y-67899242D01*
X139763420Y-67965653D01*
X139763420Y-67965653D01*
G37*
X139763420Y-67965653D02*
X139744667Y-68068667D01*
X139775003Y-68206324D01*
X139817000Y-68238000D01*
X139872760Y-68313291D01*
X139957103Y-68513420D01*
X140054374Y-68799772D01*
X140082984Y-68894167D01*
X140178068Y-69213441D01*
X140257181Y-69473803D01*
X140306276Y-69629158D01*
X140312171Y-69646076D01*
X140274224Y-69742992D01*
X140125077Y-69823053D01*
X139922864Y-69869548D01*
X139725719Y-69865761D01*
X139644085Y-69838149D01*
X139520603Y-69790723D01*
X139497942Y-69859160D01*
X139504977Y-69903141D01*
X139603152Y-70015075D01*
X139809498Y-70075583D01*
X140068605Y-70077001D01*
X140316261Y-70015361D01*
X140506220Y-69968450D01*
X140612594Y-69975471D01*
X140762111Y-69973789D01*
X140879325Y-69894205D01*
X140899872Y-69783461D01*
X140893517Y-69771466D01*
X140764414Y-69683367D01*
X140720240Y-69677334D01*
X140634545Y-69600824D01*
X140525586Y-69393761D01*
X140416514Y-69105834D01*
X140317170Y-68806494D01*
X140235820Y-68564369D01*
X140189606Y-68430462D01*
X140188886Y-68428500D01*
X140221925Y-68339604D01*
X140293868Y-68322667D01*
X140429595Y-68393805D01*
X140482135Y-68492000D01*
X140562565Y-68641177D01*
X140669671Y-68631133D01*
X140728677Y-68559931D01*
X140788004Y-68562224D01*
X140865339Y-68691541D01*
X140947587Y-68908453D01*
X141021652Y-69173531D01*
X141074438Y-69447346D01*
X141092772Y-69656167D01*
X141116862Y-69901399D01*
X141183854Y-70006962D01*
X141226333Y-70016000D01*
X141324235Y-69953414D01*
X141365636Y-69756238D01*
X141356646Y-69444500D01*
X141381781Y-69287056D01*
X141476336Y-69260260D01*
X141614161Y-69354977D01*
X141769107Y-69562069D01*
X141788345Y-69595344D01*
X141988891Y-69855615D01*
X142203565Y-69985846D01*
X142401275Y-69987609D01*
X142550932Y-69862478D01*
X142612786Y-69642780D01*
X142369333Y-69642780D01*
X142351565Y-69788199D01*
X142269868Y-69795892D01*
X142200877Y-69762469D01*
X142043192Y-69624339D01*
X141902369Y-69420824D01*
X141826296Y-69245871D01*
X141843409Y-69175847D01*
X141882654Y-69169334D01*
X142095454Y-69239721D01*
X142278530Y-69409405D01*
X142367928Y-69616171D01*
X142369333Y-69642780D01*
X142612786Y-69642780D01*
X142621445Y-69612027D01*
X142623333Y-69553089D01*
X142554792Y-69261337D01*
X142356851Y-69073754D01*
X142132439Y-69021789D01*
X141431036Y-69021789D01*
X141398083Y-69080248D01*
X141362527Y-69084667D01*
X141287942Y-69013411D01*
X141189521Y-68834191D01*
X141150860Y-68744287D01*
X141050487Y-68474926D01*
X141025563Y-68357141D01*
X141076084Y-68390940D01*
X141202043Y-68576333D01*
X141228542Y-68619000D01*
X141376855Y-68876146D01*
X141431036Y-69021789D01*
X142132439Y-69021789D01*
X142041033Y-69000623D01*
X142003557Y-69000000D01*
X141824965Y-68987553D01*
X141697625Y-68926859D01*
X141578090Y-68782888D01*
X141434527Y-68541217D01*
X141277868Y-68281057D01*
X141219120Y-68195667D01*
X141014667Y-68195667D01*
X140972333Y-68238000D01*
X140930000Y-68195667D01*
X140972333Y-68153334D01*
X141014667Y-68195667D01*
X141219120Y-68195667D01*
X141135965Y-68074802D01*
X141056512Y-67983595D01*
X140897547Y-67928684D01*
X140783623Y-68015338D01*
X140760667Y-68125055D01*
X140716039Y-68213713D01*
X140612500Y-68192751D01*
X140415548Y-68129939D01*
X140230464Y-68089264D01*
X140043234Y-68035379D01*
X139950300Y-67974238D01*
X139847143Y-67899242D01*
X139763420Y-67965653D01*
D12*
X133420000Y-110140000D02*
X133420000Y-111600000D01*
X136580000Y-110140000D02*
X136580000Y-112300000D01*
X136580000Y-110140000D02*
X135650000Y-110140000D01*
X133420000Y-110140000D02*
X134350000Y-110140000D01*
X111420000Y-100140000D02*
X111420000Y-101600000D01*
X114580000Y-100140000D02*
X114580000Y-102300000D01*
X114580000Y-100140000D02*
X113650000Y-100140000D01*
X111420000Y-100140000D02*
X112350000Y-100140000D01*
X127520172Y-106245370D02*
X126487797Y-107277746D01*
X129754630Y-108479828D02*
X128227279Y-110007178D01*
X129754630Y-108479828D02*
X129097021Y-107822218D01*
X127520172Y-106245370D02*
X128177782Y-106902979D01*
X105413065Y-95945370D02*
X104380690Y-96977746D01*
X107647523Y-98179828D02*
X106120172Y-99707178D01*
X107647523Y-98179828D02*
X106989914Y-97522218D01*
X105413065Y-95945370D02*
X106070675Y-96602979D01*
X125960000Y-101920000D02*
X124500000Y-101920000D01*
X125960000Y-105080000D02*
X123800000Y-105080000D01*
X125960000Y-105080000D02*
X125960000Y-104150000D01*
X125960000Y-101920000D02*
X125960000Y-102850000D01*
X103960000Y-89920000D02*
X102500000Y-89920000D01*
X103960000Y-93080000D02*
X101800000Y-93080000D01*
X103960000Y-93080000D02*
X103960000Y-92150000D01*
X103960000Y-89920000D02*
X103960000Y-90850000D01*
X125960000Y-97420000D02*
X124500000Y-97420000D01*
X125960000Y-100580000D02*
X123800000Y-100580000D01*
X125960000Y-100580000D02*
X125960000Y-99650000D01*
X125960000Y-97420000D02*
X125960000Y-98350000D01*
X103960000Y-85420000D02*
X102500000Y-85420000D01*
X103960000Y-88580000D02*
X101800000Y-88580000D01*
X103960000Y-88580000D02*
X103960000Y-87650000D01*
X103960000Y-85420000D02*
X103960000Y-86350000D01*
X125960000Y-92920000D02*
X124500000Y-92920000D01*
X125960000Y-96080000D02*
X123800000Y-96080000D01*
X125960000Y-96080000D02*
X125960000Y-95150000D01*
X125960000Y-92920000D02*
X125960000Y-93850000D01*
X103960000Y-80920000D02*
X102500000Y-80920000D01*
X103960000Y-84080000D02*
X101800000Y-84080000D01*
X103960000Y-84080000D02*
X103960000Y-83150000D01*
X103960000Y-80920000D02*
X103960000Y-81850000D01*
X129754630Y-85520172D02*
X128722254Y-84487797D01*
X127520172Y-87754630D02*
X125992822Y-86227279D01*
X127520172Y-87754630D02*
X128177782Y-87097021D01*
X129754630Y-85520172D02*
X129097021Y-86177782D01*
X107647523Y-75813065D02*
X106615147Y-74780690D01*
X105413065Y-78047523D02*
X103885715Y-76520172D01*
X105413065Y-78047523D02*
X106070675Y-77389914D01*
X107647523Y-75813065D02*
X106989914Y-76470675D01*
X136580000Y-83860000D02*
X136580000Y-82400000D01*
X133420000Y-83860000D02*
X133420000Y-81700000D01*
X133420000Y-83860000D02*
X134350000Y-83860000D01*
X136580000Y-83860000D02*
X135650000Y-83860000D01*
X114580000Y-73860000D02*
X114580000Y-72400000D01*
X111420000Y-73860000D02*
X111420000Y-71700000D01*
X111420000Y-73860000D02*
X112350000Y-73860000D01*
X114580000Y-73860000D02*
X113650000Y-73860000D01*
X142486935Y-87747523D02*
X143519310Y-86715147D01*
X140252477Y-85513065D02*
X141779828Y-83985715D01*
X140252477Y-85513065D02*
X140910086Y-86170675D01*
X142486935Y-87747523D02*
X141829325Y-87089914D01*
X120579828Y-78047523D02*
X121612203Y-77015147D01*
X118345370Y-75813065D02*
X119872721Y-74285715D01*
X118345370Y-75813065D02*
X119002979Y-76470675D01*
X120579828Y-78047523D02*
X119922218Y-77389914D01*
X144040000Y-94080000D02*
X145500000Y-94080000D01*
X144040000Y-90920000D02*
X146200000Y-90920000D01*
X144040000Y-90920000D02*
X144040000Y-91850000D01*
X144040000Y-94080000D02*
X144040000Y-93150000D01*
X122040000Y-82080000D02*
X123500000Y-82080000D01*
X122040000Y-78920000D02*
X124200000Y-78920000D01*
X122040000Y-78920000D02*
X122040000Y-79850000D01*
X122040000Y-82080000D02*
X122040000Y-81150000D01*
X144040000Y-98580000D02*
X145500000Y-98580000D01*
X144040000Y-95420000D02*
X146200000Y-95420000D01*
X144040000Y-95420000D02*
X144040000Y-96350000D01*
X144040000Y-98580000D02*
X144040000Y-97650000D01*
X122040000Y-86580000D02*
X123500000Y-86580000D01*
X122040000Y-83420000D02*
X124200000Y-83420000D01*
X122040000Y-83420000D02*
X122040000Y-84350000D01*
X122040000Y-86580000D02*
X122040000Y-85650000D01*
X144040000Y-103080000D02*
X145500000Y-103080000D01*
X144040000Y-99920000D02*
X146200000Y-99920000D01*
X144040000Y-99920000D02*
X144040000Y-100850000D01*
X144040000Y-103080000D02*
X144040000Y-102150000D01*
X122040000Y-91080000D02*
X123500000Y-91080000D01*
X122040000Y-87920000D02*
X124200000Y-87920000D01*
X122040000Y-87920000D02*
X122040000Y-88850000D01*
X122040000Y-91080000D02*
X122040000Y-90150000D01*
D13*
X138871428Y-111447619D02*
X138966666Y-111400000D01*
X139061904Y-111304761D01*
X139204761Y-111161904D01*
X139300000Y-111114285D01*
X139395238Y-111114285D01*
X139347619Y-111352380D02*
X139442857Y-111304761D01*
X139538095Y-111209523D01*
X139585714Y-111019047D01*
X139585714Y-110685714D01*
X139538095Y-110495238D01*
X139442857Y-110400000D01*
X139347619Y-110352380D01*
X139157142Y-110352380D01*
X139061904Y-110400000D01*
X138966666Y-110495238D01*
X138919047Y-110685714D01*
X138919047Y-111019047D01*
X138966666Y-111209523D01*
X139061904Y-111304761D01*
X139157142Y-111352380D01*
X139347619Y-111352380D01*
X138538095Y-110447619D02*
X138490476Y-110400000D01*
X138395238Y-110352380D01*
X138157142Y-110352380D01*
X138061904Y-110400000D01*
X138014285Y-110447619D01*
X137966666Y-110542857D01*
X137966666Y-110638095D01*
X138014285Y-110780952D01*
X138585714Y-111352380D01*
X137966666Y-111352380D01*
X137585714Y-110447619D02*
X137538095Y-110400000D01*
X137442857Y-110352380D01*
X137204761Y-110352380D01*
X137109523Y-110400000D01*
X137061904Y-110447619D01*
X137014285Y-110542857D01*
X137014285Y-110638095D01*
X137061904Y-110780952D01*
X137633333Y-111352380D01*
X137014285Y-111352380D01*
X116671428Y-101447619D02*
X116766666Y-101400000D01*
X116861904Y-101304761D01*
X117004761Y-101161904D01*
X117100000Y-101114285D01*
X117195238Y-101114285D01*
X117147619Y-101352380D02*
X117242857Y-101304761D01*
X117338095Y-101209523D01*
X117385714Y-101019047D01*
X117385714Y-100685714D01*
X117338095Y-100495238D01*
X117242857Y-100400000D01*
X117147619Y-100352380D01*
X116957142Y-100352380D01*
X116861904Y-100400000D01*
X116766666Y-100495238D01*
X116719047Y-100685714D01*
X116719047Y-101019047D01*
X116766666Y-101209523D01*
X116861904Y-101304761D01*
X116957142Y-101352380D01*
X117147619Y-101352380D01*
X116338095Y-100447619D02*
X116290476Y-100400000D01*
X116195238Y-100352380D01*
X115957142Y-100352380D01*
X115861904Y-100400000D01*
X115814285Y-100447619D01*
X115766666Y-100542857D01*
X115766666Y-100638095D01*
X115814285Y-100780952D01*
X116385714Y-101352380D01*
X115766666Y-101352380D01*
X114814285Y-101352380D02*
X115385714Y-101352380D01*
X115100000Y-101352380D02*
X115100000Y-100352380D01*
X115195238Y-100495238D01*
X115290476Y-100590476D01*
X115385714Y-100638095D01*
X130659053Y-109650931D02*
X130692724Y-109549915D01*
X130692724Y-109415228D01*
X130692724Y-109213198D01*
X130726396Y-109112183D01*
X130793740Y-109044839D01*
X130928427Y-109246870D02*
X130962098Y-109145854D01*
X130962098Y-109011167D01*
X130861083Y-108842809D01*
X130625381Y-108607106D01*
X130457022Y-108506091D01*
X130322335Y-108506091D01*
X130221320Y-108539763D01*
X130086633Y-108674450D01*
X130052961Y-108775465D01*
X130052961Y-108910152D01*
X130153976Y-109078511D01*
X130389679Y-109314213D01*
X130558037Y-109415228D01*
X130692724Y-109415228D01*
X130793740Y-109381557D01*
X130928427Y-109246870D01*
X129716244Y-109179526D02*
X129648900Y-109179526D01*
X129547885Y-109213198D01*
X129379526Y-109381557D01*
X129345854Y-109482572D01*
X129345854Y-109549915D01*
X129379526Y-109650931D01*
X129446870Y-109718274D01*
X129581557Y-109785618D01*
X130389679Y-109785618D01*
X129951946Y-110223350D01*
X128807106Y-109953976D02*
X128739763Y-110021320D01*
X128706091Y-110122335D01*
X128706091Y-110189679D01*
X128739763Y-110290694D01*
X128840778Y-110459053D01*
X129009137Y-110627411D01*
X129177496Y-110728427D01*
X129278511Y-110762098D01*
X129345854Y-110762098D01*
X129446870Y-110728427D01*
X129514213Y-110661083D01*
X129547885Y-110560068D01*
X129547885Y-110492724D01*
X129514213Y-110391709D01*
X129413198Y-110223350D01*
X129244839Y-110054992D01*
X129076480Y-109953976D01*
X128975465Y-109920305D01*
X128908122Y-109920305D01*
X128807106Y-109953976D01*
X108551946Y-99350931D02*
X108585617Y-99249915D01*
X108585617Y-99115228D01*
X108585617Y-98913198D01*
X108619289Y-98812183D01*
X108686633Y-98744839D01*
X108821320Y-98946870D02*
X108854991Y-98845854D01*
X108854991Y-98711167D01*
X108753976Y-98542809D01*
X108518274Y-98307106D01*
X108349915Y-98206091D01*
X108215228Y-98206091D01*
X108114213Y-98239763D01*
X107979526Y-98374450D01*
X107945854Y-98475465D01*
X107945854Y-98610152D01*
X108046869Y-98778511D01*
X108282572Y-99014213D01*
X108450930Y-99115228D01*
X108585617Y-99115228D01*
X108686633Y-99081557D01*
X108821320Y-98946870D01*
X107844839Y-99923350D02*
X108248900Y-99519289D01*
X108046869Y-99721320D02*
X107339763Y-99014213D01*
X107508121Y-99047885D01*
X107642808Y-99047885D01*
X107743824Y-99014213D01*
X107508121Y-100260068D02*
X107373434Y-100394755D01*
X107272419Y-100428427D01*
X107205076Y-100428427D01*
X107036717Y-100394755D01*
X106868358Y-100293740D01*
X106598984Y-100024366D01*
X106565312Y-99923350D01*
X106565312Y-99856007D01*
X106598984Y-99754992D01*
X106733671Y-99620305D01*
X106834686Y-99586633D01*
X106902030Y-99586633D01*
X107003045Y-99620305D01*
X107171404Y-99788663D01*
X107205076Y-99889679D01*
X107205076Y-99957022D01*
X107171404Y-100058037D01*
X107036717Y-100192724D01*
X106935702Y-100226396D01*
X106868358Y-100226396D01*
X106767343Y-100192724D01*
X122571428Y-104047619D02*
X122666666Y-104000000D01*
X122761904Y-103904761D01*
X122904761Y-103761904D01*
X123000000Y-103714285D01*
X123095238Y-103714285D01*
X123047619Y-103952380D02*
X123142857Y-103904761D01*
X123238095Y-103809523D01*
X123285714Y-103619047D01*
X123285714Y-103285714D01*
X123238095Y-103095238D01*
X123142857Y-103000000D01*
X123047619Y-102952380D01*
X122857142Y-102952380D01*
X122761904Y-103000000D01*
X122666666Y-103095238D01*
X122619047Y-103285714D01*
X122619047Y-103619047D01*
X122666666Y-103809523D01*
X122761904Y-103904761D01*
X122857142Y-103952380D01*
X123047619Y-103952380D01*
X121666666Y-103952380D02*
X122238095Y-103952380D01*
X121952380Y-103952380D02*
X121952380Y-102952380D01*
X122047619Y-103095238D01*
X122142857Y-103190476D01*
X122238095Y-103238095D01*
X121095238Y-103380952D02*
X121190476Y-103333333D01*
X121238095Y-103285714D01*
X121285714Y-103190476D01*
X121285714Y-103142857D01*
X121238095Y-103047619D01*
X121190476Y-103000000D01*
X121095238Y-102952380D01*
X120904761Y-102952380D01*
X120809523Y-103000000D01*
X120761904Y-103047619D01*
X120714285Y-103142857D01*
X120714285Y-103190476D01*
X120761904Y-103285714D01*
X120809523Y-103333333D01*
X120904761Y-103380952D01*
X121095238Y-103380952D01*
X121190476Y-103428571D01*
X121238095Y-103476190D01*
X121285714Y-103571428D01*
X121285714Y-103761904D01*
X121238095Y-103857142D01*
X121190476Y-103904761D01*
X121095238Y-103952380D01*
X120904761Y-103952380D01*
X120809523Y-103904761D01*
X120761904Y-103857142D01*
X120714285Y-103761904D01*
X120714285Y-103571428D01*
X120761904Y-103476190D01*
X120809523Y-103428571D01*
X120904761Y-103380952D01*
X100471428Y-92047619D02*
X100566666Y-92000000D01*
X100661904Y-91904761D01*
X100804761Y-91761904D01*
X100900000Y-91714285D01*
X100995238Y-91714285D01*
X100947619Y-91952380D02*
X101042857Y-91904761D01*
X101138095Y-91809523D01*
X101185714Y-91619047D01*
X101185714Y-91285714D01*
X101138095Y-91095238D01*
X101042857Y-91000000D01*
X100947619Y-90952380D01*
X100757142Y-90952380D01*
X100661904Y-91000000D01*
X100566666Y-91095238D01*
X100519047Y-91285714D01*
X100519047Y-91619047D01*
X100566666Y-91809523D01*
X100661904Y-91904761D01*
X100757142Y-91952380D01*
X100947619Y-91952380D01*
X99566666Y-91952380D02*
X100138095Y-91952380D01*
X99852380Y-91952380D02*
X99852380Y-90952380D01*
X99947619Y-91095238D01*
X100042857Y-91190476D01*
X100138095Y-91238095D01*
X99233333Y-90952380D02*
X98566666Y-90952380D01*
X98995238Y-91952380D01*
X122571428Y-99547619D02*
X122666666Y-99500000D01*
X122761904Y-99404761D01*
X122904761Y-99261904D01*
X123000000Y-99214285D01*
X123095238Y-99214285D01*
X123047619Y-99452380D02*
X123142857Y-99404761D01*
X123238095Y-99309523D01*
X123285714Y-99119047D01*
X123285714Y-98785714D01*
X123238095Y-98595238D01*
X123142857Y-98500000D01*
X123047619Y-98452380D01*
X122857142Y-98452380D01*
X122761904Y-98500000D01*
X122666666Y-98595238D01*
X122619047Y-98785714D01*
X122619047Y-99119047D01*
X122666666Y-99309523D01*
X122761904Y-99404761D01*
X122857142Y-99452380D01*
X123047619Y-99452380D01*
X121666666Y-99452380D02*
X122238095Y-99452380D01*
X121952380Y-99452380D02*
X121952380Y-98452380D01*
X122047619Y-98595238D01*
X122142857Y-98690476D01*
X122238095Y-98738095D01*
X120809523Y-98452380D02*
X121000000Y-98452380D01*
X121095238Y-98500000D01*
X121142857Y-98547619D01*
X121238095Y-98690476D01*
X121285714Y-98880952D01*
X121285714Y-99261904D01*
X121238095Y-99357142D01*
X121190476Y-99404761D01*
X121095238Y-99452380D01*
X120904761Y-99452380D01*
X120809523Y-99404761D01*
X120761904Y-99357142D01*
X120714285Y-99261904D01*
X120714285Y-99023809D01*
X120761904Y-98928571D01*
X120809523Y-98880952D01*
X120904761Y-98833333D01*
X121095238Y-98833333D01*
X121190476Y-98880952D01*
X121238095Y-98928571D01*
X121285714Y-99023809D01*
X100471428Y-87547619D02*
X100566666Y-87500000D01*
X100661904Y-87404761D01*
X100804761Y-87261904D01*
X100900000Y-87214285D01*
X100995238Y-87214285D01*
X100947619Y-87452380D02*
X101042857Y-87404761D01*
X101138095Y-87309523D01*
X101185714Y-87119047D01*
X101185714Y-86785714D01*
X101138095Y-86595238D01*
X101042857Y-86500000D01*
X100947619Y-86452380D01*
X100757142Y-86452380D01*
X100661904Y-86500000D01*
X100566666Y-86595238D01*
X100519047Y-86785714D01*
X100519047Y-87119047D01*
X100566666Y-87309523D01*
X100661904Y-87404761D01*
X100757142Y-87452380D01*
X100947619Y-87452380D01*
X99566666Y-87452380D02*
X100138095Y-87452380D01*
X99852380Y-87452380D02*
X99852380Y-86452380D01*
X99947619Y-86595238D01*
X100042857Y-86690476D01*
X100138095Y-86738095D01*
X98661904Y-86452380D02*
X99138095Y-86452380D01*
X99185714Y-86928571D01*
X99138095Y-86880952D01*
X99042857Y-86833333D01*
X98804761Y-86833333D01*
X98709523Y-86880952D01*
X98661904Y-86928571D01*
X98614285Y-87023809D01*
X98614285Y-87261904D01*
X98661904Y-87357142D01*
X98709523Y-87404761D01*
X98804761Y-87452380D01*
X99042857Y-87452380D01*
X99138095Y-87404761D01*
X99185714Y-87357142D01*
X122571428Y-95047619D02*
X122666666Y-95000000D01*
X122761904Y-94904761D01*
X122904761Y-94761904D01*
X123000000Y-94714285D01*
X123095238Y-94714285D01*
X123047619Y-94952380D02*
X123142857Y-94904761D01*
X123238095Y-94809523D01*
X123285714Y-94619047D01*
X123285714Y-94285714D01*
X123238095Y-94095238D01*
X123142857Y-94000000D01*
X123047619Y-93952380D01*
X122857142Y-93952380D01*
X122761904Y-94000000D01*
X122666666Y-94095238D01*
X122619047Y-94285714D01*
X122619047Y-94619047D01*
X122666666Y-94809523D01*
X122761904Y-94904761D01*
X122857142Y-94952380D01*
X123047619Y-94952380D01*
X121666666Y-94952380D02*
X122238095Y-94952380D01*
X121952380Y-94952380D02*
X121952380Y-93952380D01*
X122047619Y-94095238D01*
X122142857Y-94190476D01*
X122238095Y-94238095D01*
X120809523Y-94285714D02*
X120809523Y-94952380D01*
X121047619Y-93904761D02*
X121285714Y-94619047D01*
X120666666Y-94619047D01*
X100471428Y-83047619D02*
X100566666Y-83000000D01*
X100661904Y-82904761D01*
X100804761Y-82761904D01*
X100900000Y-82714285D01*
X100995238Y-82714285D01*
X100947619Y-82952380D02*
X101042857Y-82904761D01*
X101138095Y-82809523D01*
X101185714Y-82619047D01*
X101185714Y-82285714D01*
X101138095Y-82095238D01*
X101042857Y-82000000D01*
X100947619Y-81952380D01*
X100757142Y-81952380D01*
X100661904Y-82000000D01*
X100566666Y-82095238D01*
X100519047Y-82285714D01*
X100519047Y-82619047D01*
X100566666Y-82809523D01*
X100661904Y-82904761D01*
X100757142Y-82952380D01*
X100947619Y-82952380D01*
X99566666Y-82952380D02*
X100138095Y-82952380D01*
X99852380Y-82952380D02*
X99852380Y-81952380D01*
X99947619Y-82095238D01*
X100042857Y-82190476D01*
X100138095Y-82238095D01*
X99233333Y-81952380D02*
X98614285Y-81952380D01*
X98947619Y-82333333D01*
X98804761Y-82333333D01*
X98709523Y-82380952D01*
X98661904Y-82428571D01*
X98614285Y-82523809D01*
X98614285Y-82761904D01*
X98661904Y-82857142D01*
X98709523Y-82904761D01*
X98804761Y-82952380D01*
X99090476Y-82952380D01*
X99185714Y-82904761D01*
X99233333Y-82857142D01*
X126349068Y-88659053D02*
X126450084Y-88692724D01*
X126584771Y-88692724D01*
X126786801Y-88692724D01*
X126887816Y-88726396D01*
X126955160Y-88793740D01*
X126753129Y-88928427D02*
X126854145Y-88962098D01*
X126988832Y-88962098D01*
X127157190Y-88861083D01*
X127392893Y-88625381D01*
X127493908Y-88457022D01*
X127493908Y-88322335D01*
X127460236Y-88221320D01*
X127325549Y-88086633D01*
X127224534Y-88052961D01*
X127089847Y-88052961D01*
X126921488Y-88153976D01*
X126685786Y-88389679D01*
X126584771Y-88558037D01*
X126584771Y-88692724D01*
X126618442Y-88793740D01*
X126753129Y-88928427D01*
X125776649Y-87951946D02*
X126180710Y-88356007D01*
X125978679Y-88153976D02*
X126685786Y-87446870D01*
X126652114Y-87615228D01*
X126652114Y-87749915D01*
X126685786Y-87850931D01*
X126147038Y-87042809D02*
X126147038Y-86975465D01*
X126113366Y-86874450D01*
X125945007Y-86706091D01*
X125843992Y-86672419D01*
X125776649Y-86672419D01*
X125675633Y-86706091D01*
X125608290Y-86773435D01*
X125540946Y-86908122D01*
X125540946Y-87716244D01*
X125103214Y-87278511D01*
X104241961Y-78951946D02*
X104342977Y-78985617D01*
X104477664Y-78985617D01*
X104679694Y-78985617D01*
X104780709Y-79019289D01*
X104848053Y-79086633D01*
X104646022Y-79221320D02*
X104747038Y-79254991D01*
X104881725Y-79254991D01*
X105050083Y-79153976D01*
X105285786Y-78918274D01*
X105386801Y-78749915D01*
X105386801Y-78615228D01*
X105353129Y-78514213D01*
X105218442Y-78379526D01*
X105117427Y-78345854D01*
X104982740Y-78345854D01*
X104814381Y-78446869D01*
X104578679Y-78682572D01*
X104477664Y-78850930D01*
X104477664Y-78985617D01*
X104511335Y-79086633D01*
X104646022Y-79221320D01*
X103669542Y-78244839D02*
X104073603Y-78648900D01*
X103871572Y-78446869D02*
X104578679Y-77739763D01*
X104545007Y-77908121D01*
X104545007Y-78042808D01*
X104578679Y-78143824D01*
X102996107Y-77571404D02*
X103400168Y-77975465D01*
X103198137Y-77773434D02*
X103905244Y-77066328D01*
X103871572Y-77234686D01*
X103871572Y-77369373D01*
X103905244Y-77470389D01*
X131971428Y-83647619D02*
X132066666Y-83600000D01*
X132161904Y-83504761D01*
X132304761Y-83361904D01*
X132400000Y-83314285D01*
X132495238Y-83314285D01*
X132447619Y-83552380D02*
X132542857Y-83504761D01*
X132638095Y-83409523D01*
X132685714Y-83219047D01*
X132685714Y-82885714D01*
X132638095Y-82695238D01*
X132542857Y-82600000D01*
X132447619Y-82552380D01*
X132257142Y-82552380D01*
X132161904Y-82600000D01*
X132066666Y-82695238D01*
X132019047Y-82885714D01*
X132019047Y-83219047D01*
X132066666Y-83409523D01*
X132161904Y-83504761D01*
X132257142Y-83552380D01*
X132447619Y-83552380D01*
X131066666Y-83552380D02*
X131638095Y-83552380D01*
X131352380Y-83552380D02*
X131352380Y-82552380D01*
X131447619Y-82695238D01*
X131542857Y-82790476D01*
X131638095Y-82838095D01*
X130447619Y-82552380D02*
X130352380Y-82552380D01*
X130257142Y-82600000D01*
X130209523Y-82647619D01*
X130161904Y-82742857D01*
X130114285Y-82933333D01*
X130114285Y-83171428D01*
X130161904Y-83361904D01*
X130209523Y-83457142D01*
X130257142Y-83504761D01*
X130352380Y-83552380D01*
X130447619Y-83552380D01*
X130542857Y-83504761D01*
X130590476Y-83457142D01*
X130638095Y-83361904D01*
X130685714Y-83171428D01*
X130685714Y-82933333D01*
X130638095Y-82742857D01*
X130590476Y-82647619D01*
X130542857Y-82600000D01*
X130447619Y-82552380D01*
X110295238Y-73647619D02*
X110390476Y-73600000D01*
X110485714Y-73504761D01*
X110628571Y-73361904D01*
X110723809Y-73314285D01*
X110819047Y-73314285D01*
X110771428Y-73552380D02*
X110866666Y-73504761D01*
X110961904Y-73409523D01*
X111009523Y-73219047D01*
X111009523Y-72885714D01*
X110961904Y-72695238D01*
X110866666Y-72600000D01*
X110771428Y-72552380D01*
X110580952Y-72552380D01*
X110485714Y-72600000D01*
X110390476Y-72695238D01*
X110342857Y-72885714D01*
X110342857Y-73219047D01*
X110390476Y-73409523D01*
X110485714Y-73504761D01*
X110580952Y-73552380D01*
X110771428Y-73552380D01*
X109866666Y-73552380D02*
X109676190Y-73552380D01*
X109580952Y-73504761D01*
X109533333Y-73457142D01*
X109438095Y-73314285D01*
X109390476Y-73123809D01*
X109390476Y-72742857D01*
X109438095Y-72647619D01*
X109485714Y-72600000D01*
X109580952Y-72552380D01*
X109771428Y-72552380D01*
X109866666Y-72600000D01*
X109914285Y-72647619D01*
X109961904Y-72742857D01*
X109961904Y-72980952D01*
X109914285Y-73076190D01*
X109866666Y-73123809D01*
X109771428Y-73171428D01*
X109580952Y-73171428D01*
X109485714Y-73123809D01*
X109438095Y-73076190D01*
X109390476Y-72980952D01*
X140593908Y-84645007D02*
X140627580Y-84543992D01*
X140627580Y-84409305D01*
X140627580Y-84207274D01*
X140661252Y-84106259D01*
X140728595Y-84038916D01*
X140863282Y-84240946D02*
X140896954Y-84139931D01*
X140896954Y-84005244D01*
X140795939Y-83836885D01*
X140560236Y-83601183D01*
X140391878Y-83500168D01*
X140257191Y-83500168D01*
X140156175Y-83533839D01*
X140021488Y-83668526D01*
X139987817Y-83769542D01*
X139987817Y-83904229D01*
X140088832Y-84072587D01*
X140324534Y-84308290D01*
X140492893Y-84409305D01*
X140627580Y-84409305D01*
X140728595Y-84375633D01*
X140863282Y-84240946D01*
X139752114Y-84543992D02*
X139785786Y-84442977D01*
X139785786Y-84375633D01*
X139752114Y-84274618D01*
X139718443Y-84240946D01*
X139617427Y-84207274D01*
X139550084Y-84207274D01*
X139449069Y-84240946D01*
X139314382Y-84375633D01*
X139280710Y-84476648D01*
X139280710Y-84543992D01*
X139314382Y-84645007D01*
X139348053Y-84678679D01*
X139449069Y-84712351D01*
X139516412Y-84712351D01*
X139617427Y-84678679D01*
X139752114Y-84543992D01*
X139853130Y-84510320D01*
X139920473Y-84510320D01*
X140021488Y-84543992D01*
X140156175Y-84678679D01*
X140189847Y-84779694D01*
X140189847Y-84847038D01*
X140156175Y-84948053D01*
X140021488Y-85082740D01*
X139920473Y-85116412D01*
X139853130Y-85116412D01*
X139752114Y-85082740D01*
X139617427Y-84948053D01*
X139583756Y-84847038D01*
X139583756Y-84779694D01*
X139617427Y-84678679D01*
X118686801Y-74945007D02*
X118720473Y-74843992D01*
X118720473Y-74709305D01*
X118720473Y-74507274D01*
X118754145Y-74406259D01*
X118821488Y-74338916D01*
X118956175Y-74540946D02*
X118989847Y-74439931D01*
X118989847Y-74305244D01*
X118888832Y-74136885D01*
X118653129Y-73901183D01*
X118484771Y-73800168D01*
X118350084Y-73800168D01*
X118249068Y-73833839D01*
X118114381Y-73968526D01*
X118080710Y-74069542D01*
X118080710Y-74204229D01*
X118181725Y-74372587D01*
X118417427Y-74608290D01*
X118585786Y-74709305D01*
X118720473Y-74709305D01*
X118821488Y-74675633D01*
X118956175Y-74540946D01*
X117710320Y-74372587D02*
X117238916Y-74843992D01*
X118249068Y-75248053D01*
X147695238Y-93047619D02*
X147790476Y-93000000D01*
X147885714Y-92904761D01*
X148028571Y-92761904D01*
X148123809Y-92714285D01*
X148219047Y-92714285D01*
X148171428Y-92952380D02*
X148266666Y-92904761D01*
X148361904Y-92809523D01*
X148409523Y-92619047D01*
X148409523Y-92285714D01*
X148361904Y-92095238D01*
X148266666Y-92000000D01*
X148171428Y-91952380D01*
X147980952Y-91952380D01*
X147885714Y-92000000D01*
X147790476Y-92095238D01*
X147742857Y-92285714D01*
X147742857Y-92619047D01*
X147790476Y-92809523D01*
X147885714Y-92904761D01*
X147980952Y-92952380D01*
X148171428Y-92952380D01*
X146885714Y-91952380D02*
X147076190Y-91952380D01*
X147171428Y-92000000D01*
X147219047Y-92047619D01*
X147314285Y-92190476D01*
X147361904Y-92380952D01*
X147361904Y-92761904D01*
X147314285Y-92857142D01*
X147266666Y-92904761D01*
X147171428Y-92952380D01*
X146980952Y-92952380D01*
X146885714Y-92904761D01*
X146838095Y-92857142D01*
X146790476Y-92761904D01*
X146790476Y-92523809D01*
X146838095Y-92428571D01*
X146885714Y-92380952D01*
X146980952Y-92333333D01*
X147171428Y-92333333D01*
X147266666Y-92380952D01*
X147314285Y-92428571D01*
X147361904Y-92523809D01*
X125695238Y-81047619D02*
X125790476Y-81000000D01*
X125885714Y-80904761D01*
X126028571Y-80761904D01*
X126123809Y-80714285D01*
X126219047Y-80714285D01*
X126171428Y-80952380D02*
X126266666Y-80904761D01*
X126361904Y-80809523D01*
X126409523Y-80619047D01*
X126409523Y-80285714D01*
X126361904Y-80095238D01*
X126266666Y-80000000D01*
X126171428Y-79952380D01*
X125980952Y-79952380D01*
X125885714Y-80000000D01*
X125790476Y-80095238D01*
X125742857Y-80285714D01*
X125742857Y-80619047D01*
X125790476Y-80809523D01*
X125885714Y-80904761D01*
X125980952Y-80952380D01*
X126171428Y-80952380D01*
X124838095Y-79952380D02*
X125314285Y-79952380D01*
X125361904Y-80428571D01*
X125314285Y-80380952D01*
X125219047Y-80333333D01*
X124980952Y-80333333D01*
X124885714Y-80380952D01*
X124838095Y-80428571D01*
X124790476Y-80523809D01*
X124790476Y-80761904D01*
X124838095Y-80857142D01*
X124885714Y-80904761D01*
X124980952Y-80952380D01*
X125219047Y-80952380D01*
X125314285Y-80904761D01*
X125361904Y-80857142D01*
X147695238Y-97547619D02*
X147790476Y-97500000D01*
X147885714Y-97404761D01*
X148028571Y-97261904D01*
X148123809Y-97214285D01*
X148219047Y-97214285D01*
X148171428Y-97452380D02*
X148266666Y-97404761D01*
X148361904Y-97309523D01*
X148409523Y-97119047D01*
X148409523Y-96785714D01*
X148361904Y-96595238D01*
X148266666Y-96500000D01*
X148171428Y-96452380D01*
X147980952Y-96452380D01*
X147885714Y-96500000D01*
X147790476Y-96595238D01*
X147742857Y-96785714D01*
X147742857Y-97119047D01*
X147790476Y-97309523D01*
X147885714Y-97404761D01*
X147980952Y-97452380D01*
X148171428Y-97452380D01*
X146885714Y-96785714D02*
X146885714Y-97452380D01*
X147123809Y-96404761D02*
X147361904Y-97119047D01*
X146742857Y-97119047D01*
X125595238Y-85547619D02*
X125690476Y-85500000D01*
X125785714Y-85404761D01*
X125928571Y-85261904D01*
X126023809Y-85214285D01*
X126119047Y-85214285D01*
X126071428Y-85452380D02*
X126166666Y-85404761D01*
X126261904Y-85309523D01*
X126309523Y-85119047D01*
X126309523Y-84785714D01*
X126261904Y-84595238D01*
X126166666Y-84500000D01*
X126071428Y-84452380D01*
X125880952Y-84452380D01*
X125785714Y-84500000D01*
X125690476Y-84595238D01*
X125642857Y-84785714D01*
X125642857Y-85119047D01*
X125690476Y-85309523D01*
X125785714Y-85404761D01*
X125880952Y-85452380D01*
X126071428Y-85452380D01*
X125309523Y-84452380D02*
X124690476Y-84452380D01*
X125023809Y-84833333D01*
X124880952Y-84833333D01*
X124785714Y-84880952D01*
X124738095Y-84928571D01*
X124690476Y-85023809D01*
X124690476Y-85261904D01*
X124738095Y-85357142D01*
X124785714Y-85404761D01*
X124880952Y-85452380D01*
X125166666Y-85452380D01*
X125261904Y-85404761D01*
X125309523Y-85357142D01*
X147695238Y-102047619D02*
X147790476Y-102000000D01*
X147885714Y-101904761D01*
X148028571Y-101761904D01*
X148123809Y-101714285D01*
X148219047Y-101714285D01*
X148171428Y-101952380D02*
X148266666Y-101904761D01*
X148361904Y-101809523D01*
X148409523Y-101619047D01*
X148409523Y-101285714D01*
X148361904Y-101095238D01*
X148266666Y-101000000D01*
X148171428Y-100952380D01*
X147980952Y-100952380D01*
X147885714Y-101000000D01*
X147790476Y-101095238D01*
X147742857Y-101285714D01*
X147742857Y-101619047D01*
X147790476Y-101809523D01*
X147885714Y-101904761D01*
X147980952Y-101952380D01*
X148171428Y-101952380D01*
X147361904Y-101047619D02*
X147314285Y-101000000D01*
X147219047Y-100952380D01*
X146980952Y-100952380D01*
X146885714Y-101000000D01*
X146838095Y-101047619D01*
X146790476Y-101142857D01*
X146790476Y-101238095D01*
X146838095Y-101380952D01*
X147409523Y-101952380D01*
X146790476Y-101952380D01*
X125595238Y-90047619D02*
X125690476Y-90000000D01*
X125785714Y-89904761D01*
X125928571Y-89761904D01*
X126023809Y-89714285D01*
X126119047Y-89714285D01*
X126071428Y-89952380D02*
X126166666Y-89904761D01*
X126261904Y-89809523D01*
X126309523Y-89619047D01*
X126309523Y-89285714D01*
X126261904Y-89095238D01*
X126166666Y-89000000D01*
X126071428Y-88952380D01*
X125880952Y-88952380D01*
X125785714Y-89000000D01*
X125690476Y-89095238D01*
X125642857Y-89285714D01*
X125642857Y-89619047D01*
X125690476Y-89809523D01*
X125785714Y-89904761D01*
X125880952Y-89952380D01*
X126071428Y-89952380D01*
X124690476Y-89952380D02*
X125261904Y-89952380D01*
X124976190Y-89952380D02*
X124976190Y-88952380D01*
X125071428Y-89095238D01*
X125166666Y-89190476D01*
X125261904Y-89238095D01*
M02*
