%TF.GenerationSoftware,KiCad,Pcbnew,(5.1.4)-1*%
%TF.CreationDate,2020-09-18T17:24:58+08:00*%
%TF.ProjectId,Two-pronged_Approach,54776f2d-7072-46f6-9e67-65645f417070,3.0*%
%TF.SameCoordinates,Original*%
%TF.FileFunction,Paste,Bot*%
%TF.FilePolarity,Positive*%
%FSLAX46Y46*%
G04 Gerber Fmt 4.6, Leading zero omitted, Abs format (unit mm)*
G04 Created by KiCad (PCBNEW (5.1.4)-1) date 2020-09-18 17:24:58*
%MOMM*%
%LPD*%
G04 APERTURE LIST*
%ADD10R,0.800000X0.900000*%
%ADD11C,0.800000*%
%ADD12C,0.350000*%
%ADD13R,0.900000X0.800000*%
G04 APERTURE END LIST*
D10*
X135000000Y-109900000D03*
X134050000Y-111900000D03*
X135950000Y-111900000D03*
X113000000Y-99900000D03*
X112050000Y-101900000D03*
X113950000Y-101900000D03*
D11*
X128807107Y-107192893D03*
D12*
G36*
X128771752Y-107793934D02*
G01*
X128206066Y-107228248D01*
X128842462Y-106591852D01*
X129408148Y-107157538D01*
X128771752Y-107793934D01*
X128771752Y-107793934D01*
G37*
D11*
X126721142Y-107935355D03*
D12*
G36*
X126685787Y-108536396D02*
G01*
X126120101Y-107970710D01*
X126756497Y-107334314D01*
X127322183Y-107900000D01*
X126685787Y-108536396D01*
X126685787Y-108536396D01*
G37*
D11*
X128064645Y-109278858D03*
D12*
G36*
X128029290Y-109879899D02*
G01*
X127463604Y-109314213D01*
X128100000Y-108677817D01*
X128665686Y-109243503D01*
X128029290Y-109879899D01*
X128029290Y-109879899D01*
G37*
D11*
X106700000Y-96892893D03*
D12*
G36*
X106664645Y-97493934D02*
G01*
X106098959Y-96928248D01*
X106735355Y-96291852D01*
X107301041Y-96857538D01*
X106664645Y-97493934D01*
X106664645Y-97493934D01*
G37*
D11*
X104614035Y-97635355D03*
D12*
G36*
X104578680Y-98236396D02*
G01*
X104012994Y-97670710D01*
X104649390Y-97034314D01*
X105215076Y-97600000D01*
X104578680Y-98236396D01*
X104578680Y-98236396D01*
G37*
D11*
X105957538Y-98978858D03*
D12*
G36*
X105922183Y-99579899D02*
G01*
X105356497Y-99014213D01*
X105992893Y-98377817D01*
X106558579Y-98943503D01*
X105922183Y-99579899D01*
X105922183Y-99579899D01*
G37*
D13*
X126200000Y-103500000D03*
X124200000Y-102550000D03*
X124200000Y-104450000D03*
X104200000Y-91500000D03*
X102200000Y-90550000D03*
X102200000Y-92450000D03*
X126200000Y-99000000D03*
X124200000Y-98050000D03*
X124200000Y-99950000D03*
X104200000Y-87000000D03*
X102200000Y-86050000D03*
X102200000Y-87950000D03*
X126200000Y-94500000D03*
X124200000Y-93550000D03*
X124200000Y-95450000D03*
X104200000Y-82500000D03*
X102200000Y-81550000D03*
X102200000Y-83450000D03*
D11*
X128807107Y-86807107D03*
D12*
G36*
X128206066Y-86771752D02*
G01*
X128771752Y-86206066D01*
X129408148Y-86842462D01*
X128842462Y-87408148D01*
X128206066Y-86771752D01*
X128206066Y-86771752D01*
G37*
D11*
X128064645Y-84721142D03*
D12*
G36*
X127463604Y-84685787D02*
G01*
X128029290Y-84120101D01*
X128665686Y-84756497D01*
X128100000Y-85322183D01*
X127463604Y-84685787D01*
X127463604Y-84685787D01*
G37*
D11*
X126721142Y-86064645D03*
D12*
G36*
X126120101Y-86029290D02*
G01*
X126685787Y-85463604D01*
X127322183Y-86100000D01*
X126756497Y-86665686D01*
X126120101Y-86029290D01*
X126120101Y-86029290D01*
G37*
D11*
X106700000Y-77100000D03*
D12*
G36*
X106098959Y-77064645D02*
G01*
X106664645Y-76498959D01*
X107301041Y-77135355D01*
X106735355Y-77701041D01*
X106098959Y-77064645D01*
X106098959Y-77064645D01*
G37*
D11*
X105957538Y-75014035D03*
D12*
G36*
X105356497Y-74978680D02*
G01*
X105922183Y-74412994D01*
X106558579Y-75049390D01*
X105992893Y-75615076D01*
X105356497Y-74978680D01*
X105356497Y-74978680D01*
G37*
D11*
X104614035Y-76357538D03*
D12*
G36*
X104012994Y-76322183D02*
G01*
X104578680Y-75756497D01*
X105215076Y-76392893D01*
X104649390Y-76958579D01*
X104012994Y-76322183D01*
X104012994Y-76322183D01*
G37*
D10*
X135000000Y-84100000D03*
X135950000Y-82100000D03*
X134050000Y-82100000D03*
X113000000Y-74100000D03*
X113950000Y-72100000D03*
X112050000Y-72100000D03*
D11*
X141200000Y-86800000D03*
D12*
G36*
X141235355Y-86198959D02*
G01*
X141801041Y-86764645D01*
X141164645Y-87401041D01*
X140598959Y-86835355D01*
X141235355Y-86198959D01*
X141235355Y-86198959D01*
G37*
D11*
X143285965Y-86057538D03*
D12*
G36*
X143321320Y-85456497D02*
G01*
X143887006Y-86022183D01*
X143250610Y-86658579D01*
X142684924Y-86092893D01*
X143321320Y-85456497D01*
X143321320Y-85456497D01*
G37*
D11*
X141942462Y-84714035D03*
D12*
G36*
X141977817Y-84112994D02*
G01*
X142543503Y-84678680D01*
X141907107Y-85315076D01*
X141341421Y-84749390D01*
X141977817Y-84112994D01*
X141977817Y-84112994D01*
G37*
D11*
X119292893Y-77100000D03*
D12*
G36*
X119328248Y-76498959D02*
G01*
X119893934Y-77064645D01*
X119257538Y-77701041D01*
X118691852Y-77135355D01*
X119328248Y-76498959D01*
X119328248Y-76498959D01*
G37*
D11*
X121378858Y-76357538D03*
D12*
G36*
X121414213Y-75756497D02*
G01*
X121979899Y-76322183D01*
X121343503Y-76958579D01*
X120777817Y-76392893D01*
X121414213Y-75756497D01*
X121414213Y-75756497D01*
G37*
D11*
X120035355Y-75014035D03*
D12*
G36*
X120070710Y-74412994D02*
G01*
X120636396Y-74978680D01*
X120000000Y-75615076D01*
X119434314Y-75049390D01*
X120070710Y-74412994D01*
X120070710Y-74412994D01*
G37*
D13*
X143800000Y-92500000D03*
X145800000Y-93450000D03*
X145800000Y-91550000D03*
X121800000Y-80500000D03*
X123800000Y-81450000D03*
X123800000Y-79550000D03*
X143800000Y-97000000D03*
X145800000Y-97950000D03*
X145800000Y-96050000D03*
X121800000Y-85000000D03*
X123800000Y-85950000D03*
X123800000Y-84050000D03*
X143800000Y-101500000D03*
X145800000Y-102450000D03*
X145800000Y-100550000D03*
X121800000Y-89500000D03*
X123800000Y-90450000D03*
X123800000Y-88550000D03*
M02*
