M48
; DRILL file {KiCad (5.1.4)-1} date 2020/9/18 17:24:58
; FORMAT={-:-/ absolute / metric / decimal}
; #@! TF.CreationDate,2020-09-18T17:24:58+08:00
; #@! TF.GenerationSoftware,Kicad,Pcbnew,(5.1.4)-1
; #@! TF.FileFunction,Plated,1,2,PTH
FMAT,2
METRIC
T1C0.400
T2C0.500
T3C1.000
T4C1.600
T5C3.000
%
G90
G05
T1
X96.168Y-88.392
X96.319Y-84.422
X96.478Y-107.373
X97.7Y-97.2
X99.6Y-88.9
X99.8Y-91.4
X100.163Y-77.372
X101.0Y-83.2
X101.1Y-87.7
X101.1Y-100.2
X101.255Y-91.795
X102.4Y-98.3
X103.242Y-69.368
X104.2Y-75.914
X104.2Y-105.0
X104.262Y-78.623
X104.514Y-73.254
X104.9Y-99.5
X105.783Y-111.183
X106.5Y-105.0
X106.877Y-115.1
X107.3Y-99.2
X107.361Y-69.525
X107.9Y-115.065
X107.9Y-104.0
X108.8Y-115.5
X109.0Y-101.2
X109.053Y-74.294
X109.2Y-105.0
X109.275Y-114.5
X109.8Y-111.5
X110.7Y-72.1
X111.33Y-69.635
X112.403Y-81.332
X113.5Y-103.0
X113.5Y-104.9
X114.271Y-111.43
X114.503Y-83.465
X114.721Y-116.3
X115.14Y-73.588
X115.239Y-102.39
X115.409Y-69.238
X115.989Y-111.788
X116.9Y-108.8
X117.3Y-102.8
X117.455Y-75.456
X118.542Y-102.888
X118.7Y-104.5
X119.191Y-69.435
X120.0Y-115.4
X120.195Y-75.103
X120.3Y-111.8
X122.0Y-73.9
X122.104Y-112.05
X123.2Y-76.0
X123.2Y-78.0
X123.589Y-103.528
X123.7Y-87.4
X123.8Y-82.9
X124.8Y-72.1
X125.7Y-95.6
X125.8Y-73.4
X126.1Y-100.3
X126.7Y-109.5
X126.827Y-72.85
X127.153Y-113.427
X127.65Y-87.303
X127.9Y-68.6
X128.047Y-82.236
X129.7Y-72.85
X130.8Y-81.7
X131.102Y-84.554
X131.137Y-108.558
X131.307Y-113.419
X132.369Y-101.62
X132.446Y-92.635
X133.026Y-81.39
X133.188Y-72.748
X134.2Y-80.4
X134.8Y-73.2
X134.9Y-113.1
X135.0Y-79.6
X135.255Y-100.67
X135.362Y-93.328
X136.3Y-85.6
X136.4Y-110.1
X137.5Y-82.5
X137.611Y-73.427
X137.68Y-80.975
X137.7Y-72.3
X138.0Y-86.6
X138.6Y-68.6
X139.188Y-114.248
X139.38Y-74.536
X139.536Y-68.951
X139.8Y-82.6
X141.472Y-112.423
X142.0Y-80.1
X143.052Y-84.081
X143.3Y-80.6
X143.309Y-79.048
X143.35Y-110.512
X143.458Y-114.643
X144.5Y-72.8
X145.189Y-112.659
X145.329Y-108.505
X145.824Y-92.204
X145.912Y-96.565
X146.0Y-73.4
X146.0Y-76.9
X147.0Y-101.0
X147.511Y-76.48
X148.011Y-103.6
X148.1Y-94.6
X148.479Y-107.678
X149.339Y-82.601
X149.6Y-104.4
X150.0Y-96.1
X150.184Y-85.464
X151.082Y-108.612
X152.276Y-75.355
X152.442Y-87.508
T2
X147.75Y-113.0
X148.409Y-111.409
X148.409Y-114.591
X150.0Y-110.75
X150.0Y-115.25
X151.591Y-111.409
X151.591Y-114.591
X152.25Y-113.0
X147.75Y-71.0
X148.409Y-69.409
X148.409Y-72.591
X150.0Y-68.75
X150.0Y-73.25
X151.591Y-69.409
X151.591Y-72.591
X152.25Y-71.0
X95.75Y-113.0
X96.409Y-111.409
X96.409Y-114.591
X98.0Y-110.75
X98.0Y-115.25
X99.591Y-111.409
X99.591Y-114.591
X100.25Y-113.0
X95.75Y-71.0
X96.409Y-69.409
X96.409Y-72.591
X98.0Y-68.75
X98.0Y-73.25
X99.591Y-69.409
X99.591Y-72.591
X100.25Y-71.0
T3
X96.0Y-79.0
X96.0Y-81.54
X152.0Y-79.0
X152.0Y-81.54
X96.0Y-92.0
X96.0Y-94.54
X96.0Y-97.08
X96.0Y-99.62
X96.0Y-102.16
X96.0Y-104.7
X152.0Y-92.0
X152.0Y-94.54
X152.0Y-97.08
X152.0Y-99.62
X152.0Y-102.16
X152.0Y-104.7
T4
X129.25Y-92.5
X129.25Y-97.0
X129.25Y-101.5
X131.0Y-89.0
X131.0Y-105.0
X135.0Y-88.0
X135.0Y-106.0
X139.0Y-89.0
X139.0Y-105.0
X140.75Y-92.5
X140.75Y-97.0
X140.75Y-101.5
X107.25Y-82.5
X107.25Y-87.0
X107.25Y-91.5
X109.0Y-79.0
X109.0Y-95.0
X113.0Y-78.0
X113.0Y-96.0
X117.0Y-79.0
X117.0Y-95.0
X118.75Y-82.5
X118.75Y-87.0
X118.75Y-91.5
T5
X150.0Y-113.0
X150.0Y-71.0
X98.0Y-113.0
X98.0Y-71.0
T0
M30
