%TF.GenerationSoftware,KiCad,Pcbnew,(5.1.4)-1*%
%TF.CreationDate,2020-09-18T17:24:58+08:00*%
%TF.ProjectId,Two-pronged_Approach,54776f2d-7072-46f6-9e67-65645f417070,3.0*%
%TF.SameCoordinates,Original*%
%TF.FileFunction,Soldermask,Bot*%
%TF.FilePolarity,Negative*%
%FSLAX46Y46*%
G04 Gerber Fmt 4.6, Leading zero omitted, Abs format (unit mm)*
G04 Created by KiCad (PCBNEW (5.1.4)-1) date 2020-09-18 17:24:58*
%MOMM*%
%LPD*%
G04 APERTURE LIST*
%ADD10C,0.350000*%
G04 APERTURE END LIST*
D10*
G36*
X150889943Y-110066248D02*
G01*
X151445189Y-110296238D01*
X151601976Y-110401000D01*
X151944899Y-110630134D01*
X152369866Y-111055101D01*
X152518440Y-111277458D01*
X152703762Y-111554811D01*
X152933752Y-112110057D01*
X153051000Y-112699501D01*
X153051000Y-113300499D01*
X152933752Y-113889943D01*
X152703762Y-114445189D01*
X152703761Y-114445190D01*
X152369866Y-114944899D01*
X151944899Y-115369866D01*
X151804573Y-115463629D01*
X151445189Y-115703762D01*
X150889943Y-115933752D01*
X150300499Y-116051000D01*
X149699501Y-116051000D01*
X149110057Y-115933752D01*
X148554811Y-115703762D01*
X148195427Y-115463629D01*
X148055101Y-115369866D01*
X147630134Y-114944899D01*
X147296239Y-114445190D01*
X147296238Y-114445189D01*
X147066248Y-113889943D01*
X146949000Y-113300499D01*
X146949000Y-112699501D01*
X147066248Y-112110057D01*
X147296238Y-111554811D01*
X147481560Y-111277458D01*
X147630134Y-111055101D01*
X148055101Y-110630134D01*
X148398024Y-110401000D01*
X148554811Y-110296238D01*
X149110057Y-110066248D01*
X149699501Y-109949000D01*
X150300499Y-109949000D01*
X150889943Y-110066248D01*
X150889943Y-110066248D01*
G37*
G36*
X98889943Y-110066248D02*
G01*
X99445189Y-110296238D01*
X99601976Y-110401000D01*
X99944899Y-110630134D01*
X100369866Y-111055101D01*
X100518440Y-111277458D01*
X100703762Y-111554811D01*
X100933752Y-112110057D01*
X101051000Y-112699501D01*
X101051000Y-113300499D01*
X100933752Y-113889943D01*
X100703762Y-114445189D01*
X100703761Y-114445190D01*
X100369866Y-114944899D01*
X99944899Y-115369866D01*
X99804573Y-115463629D01*
X99445189Y-115703762D01*
X98889943Y-115933752D01*
X98300499Y-116051000D01*
X97699501Y-116051000D01*
X97110057Y-115933752D01*
X96554811Y-115703762D01*
X96195427Y-115463629D01*
X96055101Y-115369866D01*
X95630134Y-114944899D01*
X95296239Y-114445190D01*
X95296238Y-114445189D01*
X95066248Y-113889943D01*
X94949000Y-113300499D01*
X94949000Y-112699501D01*
X95066248Y-112110057D01*
X95296238Y-111554811D01*
X95481560Y-111277458D01*
X95630134Y-111055101D01*
X96055101Y-110630134D01*
X96398024Y-110401000D01*
X96554811Y-110296238D01*
X97110057Y-110066248D01*
X97699501Y-109949000D01*
X98300499Y-109949000D01*
X98889943Y-110066248D01*
X98889943Y-110066248D01*
G37*
G36*
X136401000Y-112401000D02*
G01*
X135499000Y-112401000D01*
X135499000Y-111399000D01*
X136401000Y-111399000D01*
X136401000Y-112401000D01*
X136401000Y-112401000D01*
G37*
G36*
X134501000Y-112401000D02*
G01*
X133599000Y-112401000D01*
X133599000Y-111399000D01*
X134501000Y-111399000D01*
X134501000Y-112401000D01*
X134501000Y-112401000D01*
G37*
G36*
X135451000Y-110401000D02*
G01*
X134549000Y-110401000D01*
X134549000Y-109399000D01*
X135451000Y-109399000D01*
X135451000Y-110401000D01*
X135451000Y-110401000D01*
G37*
G36*
X128737811Y-109243503D02*
G01*
X128029290Y-109952024D01*
X127391479Y-109314213D01*
X128100000Y-108605692D01*
X128737811Y-109243503D01*
X128737811Y-109243503D01*
G37*
G36*
X127394308Y-107900000D02*
G01*
X126685787Y-108608521D01*
X126047976Y-107970710D01*
X126756497Y-107262189D01*
X127394308Y-107900000D01*
X127394308Y-107900000D01*
G37*
G36*
X129480273Y-107157538D02*
G01*
X128771752Y-107866059D01*
X128133941Y-107228248D01*
X128842462Y-106519727D01*
X129480273Y-107157538D01*
X129480273Y-107157538D01*
G37*
G36*
X135302585Y-104478802D02*
G01*
X135452410Y-104508604D01*
X135734674Y-104625521D01*
X135988705Y-104795259D01*
X136204741Y-105011295D01*
X136374479Y-105265326D01*
X136491396Y-105547590D01*
X136551000Y-105847240D01*
X136551000Y-106152760D01*
X136491396Y-106452410D01*
X136374479Y-106734674D01*
X136204741Y-106988705D01*
X135988705Y-107204741D01*
X135734674Y-107374479D01*
X135452410Y-107491396D01*
X135302585Y-107521198D01*
X135152761Y-107551000D01*
X134847239Y-107551000D01*
X134697415Y-107521198D01*
X134547590Y-107491396D01*
X134265326Y-107374479D01*
X134011295Y-107204741D01*
X133795259Y-106988705D01*
X133625521Y-106734674D01*
X133508604Y-106452410D01*
X133449000Y-106152760D01*
X133449000Y-105847240D01*
X133508604Y-105547590D01*
X133625521Y-105265326D01*
X133795259Y-105011295D01*
X134011295Y-104795259D01*
X134265326Y-104625521D01*
X134547590Y-104508604D01*
X134697415Y-104478802D01*
X134847239Y-104449000D01*
X135152761Y-104449000D01*
X135302585Y-104478802D01*
X135302585Y-104478802D01*
G37*
G36*
X139302585Y-103478802D02*
G01*
X139452410Y-103508604D01*
X139734674Y-103625521D01*
X139988705Y-103795259D01*
X140204741Y-104011295D01*
X140374479Y-104265326D01*
X140491396Y-104547590D01*
X140491396Y-104547591D01*
X140551000Y-104847239D01*
X140551000Y-105152761D01*
X140528609Y-105265326D01*
X140491396Y-105452410D01*
X140374479Y-105734674D01*
X140204741Y-105988705D01*
X139988705Y-106204741D01*
X139734674Y-106374479D01*
X139452410Y-106491396D01*
X139309980Y-106519727D01*
X139152761Y-106551000D01*
X138847239Y-106551000D01*
X138690020Y-106519727D01*
X138547590Y-106491396D01*
X138265326Y-106374479D01*
X138011295Y-106204741D01*
X137795259Y-105988705D01*
X137625521Y-105734674D01*
X137508604Y-105452410D01*
X137471391Y-105265326D01*
X137449000Y-105152761D01*
X137449000Y-104847239D01*
X137508604Y-104547591D01*
X137508604Y-104547590D01*
X137625521Y-104265326D01*
X137795259Y-104011295D01*
X138011295Y-103795259D01*
X138265326Y-103625521D01*
X138547590Y-103508604D01*
X138697415Y-103478802D01*
X138847239Y-103449000D01*
X139152761Y-103449000D01*
X139302585Y-103478802D01*
X139302585Y-103478802D01*
G37*
G36*
X131302585Y-103478802D02*
G01*
X131452410Y-103508604D01*
X131734674Y-103625521D01*
X131988705Y-103795259D01*
X132204741Y-104011295D01*
X132374479Y-104265326D01*
X132491396Y-104547590D01*
X132491396Y-104547591D01*
X132551000Y-104847239D01*
X132551000Y-105152761D01*
X132528609Y-105265326D01*
X132491396Y-105452410D01*
X132374479Y-105734674D01*
X132204741Y-105988705D01*
X131988705Y-106204741D01*
X131734674Y-106374479D01*
X131452410Y-106491396D01*
X131309980Y-106519727D01*
X131152761Y-106551000D01*
X130847239Y-106551000D01*
X130690020Y-106519727D01*
X130547590Y-106491396D01*
X130265326Y-106374479D01*
X130011295Y-106204741D01*
X129795259Y-105988705D01*
X129625521Y-105734674D01*
X129508604Y-105452410D01*
X129471391Y-105265326D01*
X129449000Y-105152761D01*
X129449000Y-104847239D01*
X129508604Y-104547591D01*
X129508604Y-104547590D01*
X129625521Y-104265326D01*
X129795259Y-104011295D01*
X130011295Y-103795259D01*
X130265326Y-103625521D01*
X130547590Y-103508604D01*
X130697415Y-103478802D01*
X130847239Y-103449000D01*
X131152761Y-103449000D01*
X131302585Y-103478802D01*
X131302585Y-103478802D01*
G37*
G36*
X96110443Y-103805519D02*
G01*
X96176627Y-103812037D01*
X96346466Y-103863557D01*
X96502991Y-103947222D01*
X96507594Y-103951000D01*
X96640186Y-104059814D01*
X96723448Y-104161271D01*
X96752778Y-104197009D01*
X96836443Y-104353534D01*
X96887963Y-104523373D01*
X96905359Y-104700000D01*
X96887963Y-104876627D01*
X96836443Y-105046466D01*
X96752778Y-105202991D01*
X96723448Y-105238729D01*
X96640186Y-105340186D01*
X96538729Y-105423448D01*
X96502991Y-105452778D01*
X96346466Y-105536443D01*
X96176627Y-105587963D01*
X96110443Y-105594481D01*
X96044260Y-105601000D01*
X95955740Y-105601000D01*
X95889557Y-105594481D01*
X95823373Y-105587963D01*
X95653534Y-105536443D01*
X95497009Y-105452778D01*
X95461271Y-105423448D01*
X95359814Y-105340186D01*
X95276552Y-105238729D01*
X95247222Y-105202991D01*
X95163557Y-105046466D01*
X95112037Y-104876627D01*
X95094641Y-104700000D01*
X95112037Y-104523373D01*
X95163557Y-104353534D01*
X95247222Y-104197009D01*
X95276552Y-104161271D01*
X95359814Y-104059814D01*
X95492406Y-103951000D01*
X95497009Y-103947222D01*
X95653534Y-103863557D01*
X95823373Y-103812037D01*
X95889557Y-103805519D01*
X95955740Y-103799000D01*
X96044260Y-103799000D01*
X96110443Y-103805519D01*
X96110443Y-103805519D01*
G37*
G36*
X152110443Y-103805519D02*
G01*
X152176627Y-103812037D01*
X152346466Y-103863557D01*
X152502991Y-103947222D01*
X152507594Y-103951000D01*
X152640186Y-104059814D01*
X152723448Y-104161271D01*
X152752778Y-104197009D01*
X152836443Y-104353534D01*
X152887963Y-104523373D01*
X152905359Y-104700000D01*
X152887963Y-104876627D01*
X152836443Y-105046466D01*
X152752778Y-105202991D01*
X152723448Y-105238729D01*
X152640186Y-105340186D01*
X152538729Y-105423448D01*
X152502991Y-105452778D01*
X152346466Y-105536443D01*
X152176627Y-105587963D01*
X152110443Y-105594481D01*
X152044260Y-105601000D01*
X151955740Y-105601000D01*
X151889557Y-105594481D01*
X151823373Y-105587963D01*
X151653534Y-105536443D01*
X151497009Y-105452778D01*
X151461271Y-105423448D01*
X151359814Y-105340186D01*
X151276552Y-105238729D01*
X151247222Y-105202991D01*
X151163557Y-105046466D01*
X151112037Y-104876627D01*
X151094641Y-104700000D01*
X151112037Y-104523373D01*
X151163557Y-104353534D01*
X151247222Y-104197009D01*
X151276552Y-104161271D01*
X151359814Y-104059814D01*
X151492406Y-103951000D01*
X151497009Y-103947222D01*
X151653534Y-103863557D01*
X151823373Y-103812037D01*
X151889557Y-103805519D01*
X151955740Y-103799000D01*
X152044260Y-103799000D01*
X152110443Y-103805519D01*
X152110443Y-103805519D01*
G37*
G36*
X124701000Y-104901000D02*
G01*
X123699000Y-104901000D01*
X123699000Y-103999000D01*
X124701000Y-103999000D01*
X124701000Y-104901000D01*
X124701000Y-104901000D01*
G37*
G36*
X126701000Y-103951000D02*
G01*
X125699000Y-103951000D01*
X125699000Y-103049000D01*
X126701000Y-103049000D01*
X126701000Y-103951000D01*
X126701000Y-103951000D01*
G37*
G36*
X96110443Y-101265519D02*
G01*
X96176627Y-101272037D01*
X96346466Y-101323557D01*
X96502991Y-101407222D01*
X96538729Y-101436552D01*
X96640186Y-101519814D01*
X96723448Y-101621271D01*
X96752778Y-101657009D01*
X96836443Y-101813534D01*
X96887963Y-101983373D01*
X96905359Y-102160000D01*
X96887963Y-102336627D01*
X96836443Y-102506466D01*
X96752778Y-102662991D01*
X96723448Y-102698729D01*
X96640186Y-102800186D01*
X96549658Y-102874479D01*
X96502991Y-102912778D01*
X96346466Y-102996443D01*
X96176627Y-103047963D01*
X96110443Y-103054481D01*
X96044260Y-103061000D01*
X95955740Y-103061000D01*
X95889557Y-103054481D01*
X95823373Y-103047963D01*
X95653534Y-102996443D01*
X95497009Y-102912778D01*
X95450342Y-102874479D01*
X95359814Y-102800186D01*
X95276552Y-102698729D01*
X95247222Y-102662991D01*
X95163557Y-102506466D01*
X95112037Y-102336627D01*
X95094641Y-102160000D01*
X95112037Y-101983373D01*
X95163557Y-101813534D01*
X95247222Y-101657009D01*
X95276552Y-101621271D01*
X95359814Y-101519814D01*
X95461271Y-101436552D01*
X95497009Y-101407222D01*
X95653534Y-101323557D01*
X95823373Y-101272037D01*
X95889558Y-101265518D01*
X95955740Y-101259000D01*
X96044260Y-101259000D01*
X96110443Y-101265519D01*
X96110443Y-101265519D01*
G37*
G36*
X152110443Y-101265519D02*
G01*
X152176627Y-101272037D01*
X152346466Y-101323557D01*
X152502991Y-101407222D01*
X152538729Y-101436552D01*
X152640186Y-101519814D01*
X152723448Y-101621271D01*
X152752778Y-101657009D01*
X152836443Y-101813534D01*
X152887963Y-101983373D01*
X152905359Y-102160000D01*
X152887963Y-102336627D01*
X152836443Y-102506466D01*
X152752778Y-102662991D01*
X152723448Y-102698729D01*
X152640186Y-102800186D01*
X152549658Y-102874479D01*
X152502991Y-102912778D01*
X152346466Y-102996443D01*
X152176627Y-103047963D01*
X152110443Y-103054481D01*
X152044260Y-103061000D01*
X151955740Y-103061000D01*
X151889557Y-103054481D01*
X151823373Y-103047963D01*
X151653534Y-102996443D01*
X151497009Y-102912778D01*
X151450342Y-102874479D01*
X151359814Y-102800186D01*
X151276552Y-102698729D01*
X151247222Y-102662991D01*
X151163557Y-102506466D01*
X151112037Y-102336627D01*
X151094641Y-102160000D01*
X151112037Y-101983373D01*
X151163557Y-101813534D01*
X151247222Y-101657009D01*
X151276552Y-101621271D01*
X151359814Y-101519814D01*
X151461271Y-101436552D01*
X151497009Y-101407222D01*
X151653534Y-101323557D01*
X151823373Y-101272037D01*
X151889558Y-101265518D01*
X151955740Y-101259000D01*
X152044260Y-101259000D01*
X152110443Y-101265519D01*
X152110443Y-101265519D01*
G37*
G36*
X129490568Y-99966466D02*
G01*
X129702410Y-100008604D01*
X129984674Y-100125521D01*
X130238705Y-100295259D01*
X130454741Y-100511295D01*
X130624479Y-100765326D01*
X130741396Y-101047590D01*
X130741396Y-101047591D01*
X130801000Y-101347239D01*
X130801000Y-101652761D01*
X130771198Y-101802585D01*
X130741396Y-101952410D01*
X130624479Y-102234674D01*
X130454741Y-102488705D01*
X130238705Y-102704741D01*
X129984674Y-102874479D01*
X129702410Y-102991396D01*
X129654127Y-103001000D01*
X129402761Y-103051000D01*
X129097239Y-103051000D01*
X128845873Y-103001000D01*
X128797590Y-102991396D01*
X128515326Y-102874479D01*
X128261295Y-102704741D01*
X128045259Y-102488705D01*
X127875521Y-102234674D01*
X127758604Y-101952410D01*
X127728802Y-101802585D01*
X127699000Y-101652761D01*
X127699000Y-101347239D01*
X127758604Y-101047591D01*
X127758604Y-101047590D01*
X127875521Y-100765326D01*
X128045259Y-100511295D01*
X128261295Y-100295259D01*
X128515326Y-100125521D01*
X128797590Y-100008604D01*
X129009432Y-99966466D01*
X129097239Y-99949000D01*
X129402761Y-99949000D01*
X129490568Y-99966466D01*
X129490568Y-99966466D01*
G37*
G36*
X140990568Y-99966466D02*
G01*
X141202410Y-100008604D01*
X141484674Y-100125521D01*
X141738705Y-100295259D01*
X141954741Y-100511295D01*
X142124479Y-100765326D01*
X142241396Y-101047590D01*
X142241396Y-101047591D01*
X142301000Y-101347239D01*
X142301000Y-101652761D01*
X142271198Y-101802585D01*
X142241396Y-101952410D01*
X142124479Y-102234674D01*
X141954741Y-102488705D01*
X141738705Y-102704741D01*
X141484674Y-102874479D01*
X141202410Y-102991396D01*
X141154127Y-103001000D01*
X140902761Y-103051000D01*
X140597239Y-103051000D01*
X140345873Y-103001000D01*
X140297590Y-102991396D01*
X140015326Y-102874479D01*
X139761295Y-102704741D01*
X139545259Y-102488705D01*
X139375521Y-102234674D01*
X139258604Y-101952410D01*
X139228802Y-101802585D01*
X139199000Y-101652761D01*
X139199000Y-101347239D01*
X139258604Y-101047591D01*
X139258604Y-101047590D01*
X139375521Y-100765326D01*
X139545259Y-100511295D01*
X139761295Y-100295259D01*
X140015326Y-100125521D01*
X140297590Y-100008604D01*
X140509432Y-99966466D01*
X140597239Y-99949000D01*
X140902761Y-99949000D01*
X140990568Y-99966466D01*
X140990568Y-99966466D01*
G37*
G36*
X124701000Y-103001000D02*
G01*
X123699000Y-103001000D01*
X123699000Y-102099000D01*
X124701000Y-102099000D01*
X124701000Y-103001000D01*
X124701000Y-103001000D01*
G37*
G36*
X146301000Y-102901000D02*
G01*
X145299000Y-102901000D01*
X145299000Y-101999000D01*
X146301000Y-101999000D01*
X146301000Y-102901000D01*
X146301000Y-102901000D01*
G37*
G36*
X112501000Y-102401000D02*
G01*
X111599000Y-102401000D01*
X111599000Y-101399000D01*
X112501000Y-101399000D01*
X112501000Y-102401000D01*
X112501000Y-102401000D01*
G37*
G36*
X114401000Y-102401000D02*
G01*
X113499000Y-102401000D01*
X113499000Y-101399000D01*
X114401000Y-101399000D01*
X114401000Y-102401000D01*
X114401000Y-102401000D01*
G37*
G36*
X144301000Y-101951000D02*
G01*
X143299000Y-101951000D01*
X143299000Y-101049000D01*
X144301000Y-101049000D01*
X144301000Y-101951000D01*
X144301000Y-101951000D01*
G37*
G36*
X146301000Y-101001000D02*
G01*
X145299000Y-101001000D01*
X145299000Y-100099000D01*
X146301000Y-100099000D01*
X146301000Y-101001000D01*
X146301000Y-101001000D01*
G37*
G36*
X96110442Y-98725518D02*
G01*
X96176627Y-98732037D01*
X96346466Y-98783557D01*
X96502991Y-98867222D01*
X96538729Y-98896552D01*
X96640186Y-98979814D01*
X96723448Y-99081271D01*
X96752778Y-99117009D01*
X96836443Y-99273534D01*
X96887963Y-99443373D01*
X96905359Y-99620000D01*
X96887963Y-99796627D01*
X96836443Y-99966466D01*
X96752778Y-100122991D01*
X96723448Y-100158729D01*
X96640186Y-100260186D01*
X96538729Y-100343448D01*
X96502991Y-100372778D01*
X96346466Y-100456443D01*
X96176627Y-100507963D01*
X96110443Y-100514481D01*
X96044260Y-100521000D01*
X95955740Y-100521000D01*
X95889558Y-100514482D01*
X95823373Y-100507963D01*
X95653534Y-100456443D01*
X95497009Y-100372778D01*
X95461271Y-100343448D01*
X95359814Y-100260186D01*
X95276552Y-100158729D01*
X95247222Y-100122991D01*
X95163557Y-99966466D01*
X95112037Y-99796627D01*
X95094641Y-99620000D01*
X95112037Y-99443373D01*
X95163557Y-99273534D01*
X95247222Y-99117009D01*
X95276552Y-99081271D01*
X95359814Y-98979814D01*
X95461271Y-98896552D01*
X95497009Y-98867222D01*
X95653534Y-98783557D01*
X95823373Y-98732037D01*
X95889558Y-98725518D01*
X95955740Y-98719000D01*
X96044260Y-98719000D01*
X96110442Y-98725518D01*
X96110442Y-98725518D01*
G37*
G36*
X152110442Y-98725518D02*
G01*
X152176627Y-98732037D01*
X152346466Y-98783557D01*
X152502991Y-98867222D01*
X152538729Y-98896552D01*
X152640186Y-98979814D01*
X152723448Y-99081271D01*
X152752778Y-99117009D01*
X152836443Y-99273534D01*
X152887963Y-99443373D01*
X152905359Y-99620000D01*
X152887963Y-99796627D01*
X152836443Y-99966466D01*
X152752778Y-100122991D01*
X152723448Y-100158729D01*
X152640186Y-100260186D01*
X152538729Y-100343448D01*
X152502991Y-100372778D01*
X152346466Y-100456443D01*
X152176627Y-100507963D01*
X152110443Y-100514481D01*
X152044260Y-100521000D01*
X151955740Y-100521000D01*
X151889558Y-100514482D01*
X151823373Y-100507963D01*
X151653534Y-100456443D01*
X151497009Y-100372778D01*
X151461271Y-100343448D01*
X151359814Y-100260186D01*
X151276552Y-100158729D01*
X151247222Y-100122991D01*
X151163557Y-99966466D01*
X151112037Y-99796627D01*
X151094641Y-99620000D01*
X151112037Y-99443373D01*
X151163557Y-99273534D01*
X151247222Y-99117009D01*
X151276552Y-99081271D01*
X151359814Y-98979814D01*
X151461271Y-98896552D01*
X151497009Y-98867222D01*
X151653534Y-98783557D01*
X151823373Y-98732037D01*
X151889558Y-98725518D01*
X151955740Y-98719000D01*
X152044260Y-98719000D01*
X152110442Y-98725518D01*
X152110442Y-98725518D01*
G37*
G36*
X113451000Y-100401000D02*
G01*
X112549000Y-100401000D01*
X112549000Y-99399000D01*
X113451000Y-99399000D01*
X113451000Y-100401000D01*
X113451000Y-100401000D01*
G37*
G36*
X124701000Y-100401000D02*
G01*
X123699000Y-100401000D01*
X123699000Y-99499000D01*
X124701000Y-99499000D01*
X124701000Y-100401000D01*
X124701000Y-100401000D01*
G37*
G36*
X106630704Y-98943503D02*
G01*
X105922183Y-99652024D01*
X105284372Y-99014213D01*
X105992893Y-98305692D01*
X106630704Y-98943503D01*
X106630704Y-98943503D01*
G37*
G36*
X126701000Y-99451000D02*
G01*
X125699000Y-99451000D01*
X125699000Y-98549000D01*
X126701000Y-98549000D01*
X126701000Y-99451000D01*
X126701000Y-99451000D01*
G37*
G36*
X135525331Y-95268211D02*
G01*
X135853092Y-95403974D01*
X136148070Y-95601072D01*
X136398928Y-95851930D01*
X136596026Y-96146908D01*
X136731789Y-96474669D01*
X136801000Y-96822616D01*
X136801000Y-97177384D01*
X136731789Y-97525331D01*
X136596026Y-97853092D01*
X136398928Y-98148070D01*
X136148070Y-98398928D01*
X135853092Y-98596026D01*
X135525331Y-98731789D01*
X135177384Y-98801000D01*
X134822616Y-98801000D01*
X134474669Y-98731789D01*
X134146908Y-98596026D01*
X133851930Y-98398928D01*
X133601072Y-98148070D01*
X133403974Y-97853092D01*
X133268211Y-97525331D01*
X133199000Y-97177384D01*
X133199000Y-96822616D01*
X133268211Y-96474669D01*
X133403974Y-96146908D01*
X133601072Y-95851930D01*
X133851930Y-95601072D01*
X134146908Y-95403974D01*
X134474669Y-95268211D01*
X134822616Y-95199000D01*
X135177384Y-95199000D01*
X135525331Y-95268211D01*
X135525331Y-95268211D01*
G37*
G36*
X129552585Y-95478802D02*
G01*
X129702410Y-95508604D01*
X129984674Y-95625521D01*
X130238705Y-95795259D01*
X130454741Y-96011295D01*
X130624479Y-96265326D01*
X130741396Y-96547590D01*
X130801000Y-96847240D01*
X130801000Y-97152760D01*
X130741396Y-97452410D01*
X130624479Y-97734674D01*
X130454741Y-97988705D01*
X130238705Y-98204741D01*
X129984674Y-98374479D01*
X129702410Y-98491396D01*
X129654127Y-98501000D01*
X129402761Y-98551000D01*
X129097239Y-98551000D01*
X128845873Y-98501000D01*
X128797590Y-98491396D01*
X128515326Y-98374479D01*
X128261295Y-98204741D01*
X128045259Y-97988705D01*
X127875521Y-97734674D01*
X127758604Y-97452410D01*
X127699000Y-97152760D01*
X127699000Y-96847240D01*
X127758604Y-96547590D01*
X127875521Y-96265326D01*
X128045259Y-96011295D01*
X128261295Y-95795259D01*
X128515326Y-95625521D01*
X128797590Y-95508604D01*
X128947415Y-95478802D01*
X129097239Y-95449000D01*
X129402761Y-95449000D01*
X129552585Y-95478802D01*
X129552585Y-95478802D01*
G37*
G36*
X141052585Y-95478802D02*
G01*
X141202410Y-95508604D01*
X141484674Y-95625521D01*
X141738705Y-95795259D01*
X141954741Y-96011295D01*
X142124479Y-96265326D01*
X142241396Y-96547590D01*
X142301000Y-96847240D01*
X142301000Y-97152760D01*
X142241396Y-97452410D01*
X142124479Y-97734674D01*
X141954741Y-97988705D01*
X141738705Y-98204741D01*
X141484674Y-98374479D01*
X141202410Y-98491396D01*
X141154127Y-98501000D01*
X140902761Y-98551000D01*
X140597239Y-98551000D01*
X140345873Y-98501000D01*
X140297590Y-98491396D01*
X140015326Y-98374479D01*
X139761295Y-98204741D01*
X139545259Y-97988705D01*
X139375521Y-97734674D01*
X139258604Y-97452410D01*
X139199000Y-97152760D01*
X139199000Y-96847240D01*
X139258604Y-96547590D01*
X139375521Y-96265326D01*
X139545259Y-96011295D01*
X139761295Y-95795259D01*
X140015326Y-95625521D01*
X140297590Y-95508604D01*
X140447415Y-95478802D01*
X140597239Y-95449000D01*
X140902761Y-95449000D01*
X141052585Y-95478802D01*
X141052585Y-95478802D01*
G37*
G36*
X124701000Y-98501000D02*
G01*
X123699000Y-98501000D01*
X123699000Y-97599000D01*
X124701000Y-97599000D01*
X124701000Y-98501000D01*
X124701000Y-98501000D01*
G37*
G36*
X146301000Y-98401000D02*
G01*
X145299000Y-98401000D01*
X145299000Y-97499000D01*
X146301000Y-97499000D01*
X146301000Y-98401000D01*
X146301000Y-98401000D01*
G37*
G36*
X105287201Y-97600000D02*
G01*
X104578680Y-98308521D01*
X103940869Y-97670710D01*
X104649390Y-96962189D01*
X105287201Y-97600000D01*
X105287201Y-97600000D01*
G37*
G36*
X152110442Y-96185518D02*
G01*
X152176627Y-96192037D01*
X152346466Y-96243557D01*
X152502991Y-96327222D01*
X152538729Y-96356552D01*
X152640186Y-96439814D01*
X152690399Y-96501000D01*
X152752778Y-96577009D01*
X152836443Y-96733534D01*
X152887963Y-96903373D01*
X152905359Y-97080000D01*
X152887963Y-97256627D01*
X152836443Y-97426466D01*
X152752778Y-97582991D01*
X152738819Y-97600000D01*
X152640186Y-97720186D01*
X152538729Y-97803448D01*
X152502991Y-97832778D01*
X152346466Y-97916443D01*
X152176627Y-97967963D01*
X152110442Y-97974482D01*
X152044260Y-97981000D01*
X151955740Y-97981000D01*
X151889558Y-97974482D01*
X151823373Y-97967963D01*
X151653534Y-97916443D01*
X151497009Y-97832778D01*
X151461271Y-97803448D01*
X151359814Y-97720186D01*
X151261181Y-97600000D01*
X151247222Y-97582991D01*
X151163557Y-97426466D01*
X151112037Y-97256627D01*
X151094641Y-97080000D01*
X151112037Y-96903373D01*
X151163557Y-96733534D01*
X151247222Y-96577009D01*
X151309601Y-96501000D01*
X151359814Y-96439814D01*
X151461271Y-96356552D01*
X151497009Y-96327222D01*
X151653534Y-96243557D01*
X151823373Y-96192037D01*
X151889558Y-96185518D01*
X151955740Y-96179000D01*
X152044260Y-96179000D01*
X152110442Y-96185518D01*
X152110442Y-96185518D01*
G37*
G36*
X96110442Y-96185518D02*
G01*
X96176627Y-96192037D01*
X96346466Y-96243557D01*
X96502991Y-96327222D01*
X96538729Y-96356552D01*
X96640186Y-96439814D01*
X96690399Y-96501000D01*
X96752778Y-96577009D01*
X96836443Y-96733534D01*
X96887963Y-96903373D01*
X96905359Y-97080000D01*
X96887963Y-97256627D01*
X96836443Y-97426466D01*
X96752778Y-97582991D01*
X96738819Y-97600000D01*
X96640186Y-97720186D01*
X96538729Y-97803448D01*
X96502991Y-97832778D01*
X96346466Y-97916443D01*
X96176627Y-97967963D01*
X96110442Y-97974482D01*
X96044260Y-97981000D01*
X95955740Y-97981000D01*
X95889558Y-97974482D01*
X95823373Y-97967963D01*
X95653534Y-97916443D01*
X95497009Y-97832778D01*
X95461271Y-97803448D01*
X95359814Y-97720186D01*
X95261181Y-97600000D01*
X95247222Y-97582991D01*
X95163557Y-97426466D01*
X95112037Y-97256627D01*
X95094641Y-97080000D01*
X95112037Y-96903373D01*
X95163557Y-96733534D01*
X95247222Y-96577009D01*
X95309601Y-96501000D01*
X95359814Y-96439814D01*
X95461271Y-96356552D01*
X95497009Y-96327222D01*
X95653534Y-96243557D01*
X95823373Y-96192037D01*
X95889558Y-96185518D01*
X95955740Y-96179000D01*
X96044260Y-96179000D01*
X96110442Y-96185518D01*
X96110442Y-96185518D01*
G37*
G36*
X107373166Y-96857538D02*
G01*
X106664645Y-97566059D01*
X106026834Y-96928248D01*
X106735355Y-96219727D01*
X107373166Y-96857538D01*
X107373166Y-96857538D01*
G37*
G36*
X113302585Y-94478802D02*
G01*
X113452410Y-94508604D01*
X113734674Y-94625521D01*
X113988705Y-94795259D01*
X114204741Y-95011295D01*
X114374479Y-95265326D01*
X114491396Y-95547590D01*
X114491396Y-95547591D01*
X114551000Y-95847239D01*
X114551000Y-96152761D01*
X114537679Y-96219728D01*
X114491396Y-96452410D01*
X114374479Y-96734674D01*
X114204741Y-96988705D01*
X113988705Y-97204741D01*
X113734674Y-97374479D01*
X113452410Y-97491396D01*
X113302585Y-97521198D01*
X113152761Y-97551000D01*
X112847239Y-97551000D01*
X112697415Y-97521198D01*
X112547590Y-97491396D01*
X112265326Y-97374479D01*
X112011295Y-97204741D01*
X111795259Y-96988705D01*
X111625521Y-96734674D01*
X111508604Y-96452410D01*
X111462321Y-96219728D01*
X111449000Y-96152761D01*
X111449000Y-95847239D01*
X111508604Y-95547591D01*
X111508604Y-95547590D01*
X111625521Y-95265326D01*
X111795259Y-95011295D01*
X112011295Y-94795259D01*
X112265326Y-94625521D01*
X112547590Y-94508604D01*
X112697415Y-94478802D01*
X112847239Y-94449000D01*
X113152761Y-94449000D01*
X113302585Y-94478802D01*
X113302585Y-94478802D01*
G37*
G36*
X144301000Y-97451000D02*
G01*
X143299000Y-97451000D01*
X143299000Y-96549000D01*
X144301000Y-96549000D01*
X144301000Y-97451000D01*
X144301000Y-97451000D01*
G37*
G36*
X109302585Y-93478802D02*
G01*
X109452410Y-93508604D01*
X109734674Y-93625521D01*
X109988705Y-93795259D01*
X110204741Y-94011295D01*
X110374479Y-94265326D01*
X110488252Y-94540000D01*
X110491396Y-94547591D01*
X110525020Y-94716627D01*
X110551000Y-94847240D01*
X110551000Y-95152760D01*
X110491396Y-95452410D01*
X110374479Y-95734674D01*
X110204741Y-95988705D01*
X109988705Y-96204741D01*
X109734674Y-96374479D01*
X109452410Y-96491396D01*
X109404127Y-96501000D01*
X109152761Y-96551000D01*
X108847239Y-96551000D01*
X108595873Y-96501000D01*
X108547590Y-96491396D01*
X108265326Y-96374479D01*
X108011295Y-96204741D01*
X107795259Y-95988705D01*
X107625521Y-95734674D01*
X107508604Y-95452410D01*
X107449000Y-95152760D01*
X107449000Y-94847240D01*
X107474981Y-94716627D01*
X107508604Y-94547591D01*
X107511748Y-94540000D01*
X107625521Y-94265326D01*
X107795259Y-94011295D01*
X108011295Y-93795259D01*
X108265326Y-93625521D01*
X108547590Y-93508604D01*
X108697415Y-93478802D01*
X108847239Y-93449000D01*
X109152761Y-93449000D01*
X109302585Y-93478802D01*
X109302585Y-93478802D01*
G37*
G36*
X117302585Y-93478802D02*
G01*
X117452410Y-93508604D01*
X117734674Y-93625521D01*
X117988705Y-93795259D01*
X118204741Y-94011295D01*
X118374479Y-94265326D01*
X118488252Y-94540000D01*
X118491396Y-94547591D01*
X118525020Y-94716627D01*
X118551000Y-94847240D01*
X118551000Y-95152760D01*
X118491396Y-95452410D01*
X118374479Y-95734674D01*
X118204741Y-95988705D01*
X117988705Y-96204741D01*
X117734674Y-96374479D01*
X117452410Y-96491396D01*
X117404127Y-96501000D01*
X117152761Y-96551000D01*
X116847239Y-96551000D01*
X116595873Y-96501000D01*
X116547590Y-96491396D01*
X116265326Y-96374479D01*
X116011295Y-96204741D01*
X115795259Y-95988705D01*
X115625521Y-95734674D01*
X115508604Y-95452410D01*
X115449000Y-95152760D01*
X115449000Y-94847240D01*
X115474981Y-94716627D01*
X115508604Y-94547591D01*
X115511748Y-94540000D01*
X115625521Y-94265326D01*
X115795259Y-94011295D01*
X116011295Y-93795259D01*
X116265326Y-93625521D01*
X116547590Y-93508604D01*
X116697415Y-93478802D01*
X116847239Y-93449000D01*
X117152761Y-93449000D01*
X117302585Y-93478802D01*
X117302585Y-93478802D01*
G37*
G36*
X146301000Y-96501000D02*
G01*
X145299000Y-96501000D01*
X145299000Y-95599000D01*
X146301000Y-95599000D01*
X146301000Y-96501000D01*
X146301000Y-96501000D01*
G37*
G36*
X124701000Y-95901000D02*
G01*
X123699000Y-95901000D01*
X123699000Y-94999000D01*
X124701000Y-94999000D01*
X124701000Y-95901000D01*
X124701000Y-95901000D01*
G37*
G36*
X152110443Y-93645519D02*
G01*
X152176627Y-93652037D01*
X152346466Y-93703557D01*
X152502991Y-93787222D01*
X152512785Y-93795260D01*
X152640186Y-93899814D01*
X152715344Y-93991396D01*
X152752778Y-94037009D01*
X152836443Y-94193534D01*
X152887963Y-94363373D01*
X152905359Y-94540000D01*
X152887963Y-94716627D01*
X152836443Y-94886466D01*
X152752778Y-95042991D01*
X152723448Y-95078729D01*
X152640186Y-95180186D01*
X152538729Y-95263448D01*
X152502991Y-95292778D01*
X152346466Y-95376443D01*
X152176627Y-95427963D01*
X152110442Y-95434482D01*
X152044260Y-95441000D01*
X151955740Y-95441000D01*
X151889558Y-95434482D01*
X151823373Y-95427963D01*
X151653534Y-95376443D01*
X151497009Y-95292778D01*
X151461271Y-95263448D01*
X151359814Y-95180186D01*
X151276552Y-95078729D01*
X151247222Y-95042991D01*
X151163557Y-94886466D01*
X151112037Y-94716627D01*
X151094641Y-94540000D01*
X151112037Y-94363373D01*
X151163557Y-94193534D01*
X151247222Y-94037009D01*
X151284656Y-93991396D01*
X151359814Y-93899814D01*
X151487215Y-93795260D01*
X151497009Y-93787222D01*
X151653534Y-93703557D01*
X151823373Y-93652037D01*
X151889557Y-93645519D01*
X151955740Y-93639000D01*
X152044260Y-93639000D01*
X152110443Y-93645519D01*
X152110443Y-93645519D01*
G37*
G36*
X96110443Y-93645519D02*
G01*
X96176627Y-93652037D01*
X96346466Y-93703557D01*
X96502991Y-93787222D01*
X96512785Y-93795260D01*
X96640186Y-93899814D01*
X96715344Y-93991396D01*
X96752778Y-94037009D01*
X96836443Y-94193534D01*
X96887963Y-94363373D01*
X96905359Y-94540000D01*
X96887963Y-94716627D01*
X96836443Y-94886466D01*
X96752778Y-95042991D01*
X96723448Y-95078729D01*
X96640186Y-95180186D01*
X96538729Y-95263448D01*
X96502991Y-95292778D01*
X96346466Y-95376443D01*
X96176627Y-95427963D01*
X96110442Y-95434482D01*
X96044260Y-95441000D01*
X95955740Y-95441000D01*
X95889558Y-95434482D01*
X95823373Y-95427963D01*
X95653534Y-95376443D01*
X95497009Y-95292778D01*
X95461271Y-95263448D01*
X95359814Y-95180186D01*
X95276552Y-95078729D01*
X95247222Y-95042991D01*
X95163557Y-94886466D01*
X95112037Y-94716627D01*
X95094641Y-94540000D01*
X95112037Y-94363373D01*
X95163557Y-94193534D01*
X95247222Y-94037009D01*
X95284656Y-93991396D01*
X95359814Y-93899814D01*
X95487215Y-93795260D01*
X95497009Y-93787222D01*
X95653534Y-93703557D01*
X95823373Y-93652037D01*
X95889557Y-93645519D01*
X95955740Y-93639000D01*
X96044260Y-93639000D01*
X96110443Y-93645519D01*
X96110443Y-93645519D01*
G37*
G36*
X126701000Y-94951000D02*
G01*
X125699000Y-94951000D01*
X125699000Y-94049000D01*
X126701000Y-94049000D01*
X126701000Y-94951000D01*
X126701000Y-94951000D01*
G37*
G36*
X129552585Y-90978802D02*
G01*
X129702410Y-91008604D01*
X129984674Y-91125521D01*
X130238705Y-91295259D01*
X130454741Y-91511295D01*
X130624479Y-91765326D01*
X130741396Y-92047590D01*
X130801000Y-92347240D01*
X130801000Y-92652760D01*
X130741396Y-92952410D01*
X130624479Y-93234674D01*
X130454741Y-93488705D01*
X130238705Y-93704741D01*
X129984674Y-93874479D01*
X129702410Y-93991396D01*
X129552585Y-94021198D01*
X129402761Y-94051000D01*
X129097239Y-94051000D01*
X128947415Y-94021198D01*
X128797590Y-93991396D01*
X128515326Y-93874479D01*
X128261295Y-93704741D01*
X128045259Y-93488705D01*
X127875521Y-93234674D01*
X127758604Y-92952410D01*
X127699000Y-92652760D01*
X127699000Y-92347240D01*
X127758604Y-92047590D01*
X127875521Y-91765326D01*
X128045259Y-91511295D01*
X128261295Y-91295259D01*
X128515326Y-91125521D01*
X128797590Y-91008604D01*
X128947415Y-90978802D01*
X129097239Y-90949000D01*
X129402761Y-90949000D01*
X129552585Y-90978802D01*
X129552585Y-90978802D01*
G37*
G36*
X141052585Y-90978802D02*
G01*
X141202410Y-91008604D01*
X141484674Y-91125521D01*
X141738705Y-91295259D01*
X141954741Y-91511295D01*
X142124479Y-91765326D01*
X142241396Y-92047590D01*
X142301000Y-92347240D01*
X142301000Y-92652760D01*
X142241396Y-92952410D01*
X142124479Y-93234674D01*
X141954741Y-93488705D01*
X141738705Y-93704741D01*
X141484674Y-93874479D01*
X141202410Y-93991396D01*
X141052585Y-94021198D01*
X140902761Y-94051000D01*
X140597239Y-94051000D01*
X140447415Y-94021198D01*
X140297590Y-93991396D01*
X140015326Y-93874479D01*
X139761295Y-93704741D01*
X139545259Y-93488705D01*
X139375521Y-93234674D01*
X139258604Y-92952410D01*
X139199000Y-92652760D01*
X139199000Y-92347240D01*
X139258604Y-92047590D01*
X139375521Y-91765326D01*
X139545259Y-91511295D01*
X139761295Y-91295259D01*
X140015326Y-91125521D01*
X140297590Y-91008604D01*
X140447415Y-90978802D01*
X140597239Y-90949000D01*
X140902761Y-90949000D01*
X141052585Y-90978802D01*
X141052585Y-90978802D01*
G37*
G36*
X124701000Y-94001000D02*
G01*
X123699000Y-94001000D01*
X123699000Y-93099000D01*
X124701000Y-93099000D01*
X124701000Y-94001000D01*
X124701000Y-94001000D01*
G37*
G36*
X146301000Y-93901000D02*
G01*
X145299000Y-93901000D01*
X145299000Y-92999000D01*
X146301000Y-92999000D01*
X146301000Y-93901000D01*
X146301000Y-93901000D01*
G37*
G36*
X119052585Y-89978802D02*
G01*
X119202410Y-90008604D01*
X119484674Y-90125521D01*
X119738705Y-90295259D01*
X119954741Y-90511295D01*
X120124479Y-90765326D01*
X120241396Y-91047590D01*
X120301000Y-91347240D01*
X120301000Y-91652760D01*
X120241396Y-91952410D01*
X120124479Y-92234674D01*
X119954741Y-92488705D01*
X119738705Y-92704741D01*
X119484674Y-92874479D01*
X119202410Y-92991396D01*
X119052585Y-93021198D01*
X118902761Y-93051000D01*
X118597239Y-93051000D01*
X118447415Y-93021198D01*
X118297590Y-92991396D01*
X118015326Y-92874479D01*
X117761295Y-92704741D01*
X117545259Y-92488705D01*
X117375521Y-92234674D01*
X117258604Y-91952410D01*
X117199000Y-91652760D01*
X117199000Y-91347240D01*
X117258604Y-91047590D01*
X117375521Y-90765326D01*
X117545259Y-90511295D01*
X117761295Y-90295259D01*
X118015326Y-90125521D01*
X118297590Y-90008604D01*
X118447415Y-89978802D01*
X118597239Y-89949000D01*
X118902761Y-89949000D01*
X119052585Y-89978802D01*
X119052585Y-89978802D01*
G37*
G36*
X107552585Y-89978802D02*
G01*
X107702410Y-90008604D01*
X107984674Y-90125521D01*
X108238705Y-90295259D01*
X108454741Y-90511295D01*
X108624479Y-90765326D01*
X108741396Y-91047590D01*
X108801000Y-91347240D01*
X108801000Y-91652760D01*
X108741396Y-91952410D01*
X108624479Y-92234674D01*
X108454741Y-92488705D01*
X108238705Y-92704741D01*
X107984674Y-92874479D01*
X107702410Y-92991396D01*
X107552585Y-93021198D01*
X107402761Y-93051000D01*
X107097239Y-93051000D01*
X106947415Y-93021198D01*
X106797590Y-92991396D01*
X106515326Y-92874479D01*
X106261295Y-92704741D01*
X106045259Y-92488705D01*
X105875521Y-92234674D01*
X105758604Y-91952410D01*
X105699000Y-91652760D01*
X105699000Y-91347240D01*
X105758604Y-91047590D01*
X105875521Y-90765326D01*
X106045259Y-90511295D01*
X106261295Y-90295259D01*
X106515326Y-90125521D01*
X106797590Y-90008604D01*
X106947415Y-89978802D01*
X107097239Y-89949000D01*
X107402761Y-89949000D01*
X107552585Y-89978802D01*
X107552585Y-89978802D01*
G37*
G36*
X144301000Y-92951000D02*
G01*
X143299000Y-92951000D01*
X143299000Y-92049000D01*
X144301000Y-92049000D01*
X144301000Y-92951000D01*
X144301000Y-92951000D01*
G37*
G36*
X96113512Y-91103927D02*
G01*
X96262812Y-91133624D01*
X96426784Y-91201544D01*
X96574354Y-91300147D01*
X96699853Y-91425646D01*
X96798456Y-91573216D01*
X96866376Y-91737188D01*
X96901000Y-91911259D01*
X96901000Y-92088741D01*
X96866376Y-92262812D01*
X96798456Y-92426784D01*
X96699853Y-92574354D01*
X96574354Y-92699853D01*
X96426784Y-92798456D01*
X96262812Y-92866376D01*
X96113512Y-92896073D01*
X96088742Y-92901000D01*
X95911258Y-92901000D01*
X95886488Y-92896073D01*
X95737188Y-92866376D01*
X95573216Y-92798456D01*
X95425646Y-92699853D01*
X95300147Y-92574354D01*
X95201544Y-92426784D01*
X95133624Y-92262812D01*
X95099000Y-92088741D01*
X95099000Y-91911259D01*
X95133624Y-91737188D01*
X95201544Y-91573216D01*
X95300147Y-91425646D01*
X95425646Y-91300147D01*
X95573216Y-91201544D01*
X95737188Y-91133624D01*
X95886488Y-91103927D01*
X95911258Y-91099000D01*
X96088742Y-91099000D01*
X96113512Y-91103927D01*
X96113512Y-91103927D01*
G37*
G36*
X152113512Y-91103927D02*
G01*
X152262812Y-91133624D01*
X152426784Y-91201544D01*
X152574354Y-91300147D01*
X152699853Y-91425646D01*
X152798456Y-91573216D01*
X152866376Y-91737188D01*
X152901000Y-91911259D01*
X152901000Y-92088741D01*
X152866376Y-92262812D01*
X152798456Y-92426784D01*
X152699853Y-92574354D01*
X152574354Y-92699853D01*
X152426784Y-92798456D01*
X152262812Y-92866376D01*
X152113512Y-92896073D01*
X152088742Y-92901000D01*
X151911258Y-92901000D01*
X151886488Y-92896073D01*
X151737188Y-92866376D01*
X151573216Y-92798456D01*
X151425646Y-92699853D01*
X151300147Y-92574354D01*
X151201544Y-92426784D01*
X151133624Y-92262812D01*
X151099000Y-92088741D01*
X151099000Y-91911259D01*
X151133624Y-91737188D01*
X151201544Y-91573216D01*
X151300147Y-91425646D01*
X151425646Y-91300147D01*
X151573216Y-91201544D01*
X151737188Y-91133624D01*
X151886488Y-91103927D01*
X151911258Y-91099000D01*
X152088742Y-91099000D01*
X152113512Y-91103927D01*
X152113512Y-91103927D01*
G37*
G36*
X102701000Y-92901000D02*
G01*
X101699000Y-92901000D01*
X101699000Y-91999000D01*
X102701000Y-91999000D01*
X102701000Y-92901000D01*
X102701000Y-92901000D01*
G37*
G36*
X146301000Y-92001000D02*
G01*
X145299000Y-92001000D01*
X145299000Y-91099000D01*
X146301000Y-91099000D01*
X146301000Y-92001000D01*
X146301000Y-92001000D01*
G37*
G36*
X104701000Y-91951000D02*
G01*
X103699000Y-91951000D01*
X103699000Y-91049000D01*
X104701000Y-91049000D01*
X104701000Y-91951000D01*
X104701000Y-91951000D01*
G37*
G36*
X102701000Y-91001000D02*
G01*
X101699000Y-91001000D01*
X101699000Y-90099000D01*
X102701000Y-90099000D01*
X102701000Y-91001000D01*
X102701000Y-91001000D01*
G37*
G36*
X124301000Y-90901000D02*
G01*
X123299000Y-90901000D01*
X123299000Y-89999000D01*
X124301000Y-89999000D01*
X124301000Y-90901000D01*
X124301000Y-90901000D01*
G37*
G36*
X131274246Y-87473165D02*
G01*
X131452410Y-87508604D01*
X131734674Y-87625521D01*
X131988705Y-87795259D01*
X132204741Y-88011295D01*
X132374479Y-88265326D01*
X132491396Y-88547590D01*
X132551000Y-88847240D01*
X132551000Y-89152760D01*
X132491396Y-89452410D01*
X132374479Y-89734674D01*
X132204741Y-89988705D01*
X131988705Y-90204741D01*
X131734674Y-90374479D01*
X131452410Y-90491396D01*
X131302585Y-90521198D01*
X131152761Y-90551000D01*
X130847239Y-90551000D01*
X130697415Y-90521198D01*
X130547590Y-90491396D01*
X130265326Y-90374479D01*
X130011295Y-90204741D01*
X129795259Y-89988705D01*
X129625521Y-89734674D01*
X129508604Y-89452410D01*
X129449000Y-89152760D01*
X129449000Y-88847240D01*
X129508604Y-88547590D01*
X129625521Y-88265326D01*
X129795259Y-88011295D01*
X130011295Y-87795259D01*
X130265326Y-87625521D01*
X130547590Y-87508604D01*
X130725754Y-87473165D01*
X130847239Y-87449000D01*
X131152761Y-87449000D01*
X131274246Y-87473165D01*
X131274246Y-87473165D01*
G37*
G36*
X139274246Y-87473165D02*
G01*
X139452410Y-87508604D01*
X139734674Y-87625521D01*
X139988705Y-87795259D01*
X140204741Y-88011295D01*
X140374479Y-88265326D01*
X140491396Y-88547590D01*
X140551000Y-88847240D01*
X140551000Y-89152760D01*
X140491396Y-89452410D01*
X140374479Y-89734674D01*
X140204741Y-89988705D01*
X139988705Y-90204741D01*
X139734674Y-90374479D01*
X139452410Y-90491396D01*
X139302585Y-90521198D01*
X139152761Y-90551000D01*
X138847239Y-90551000D01*
X138697415Y-90521198D01*
X138547590Y-90491396D01*
X138265326Y-90374479D01*
X138011295Y-90204741D01*
X137795259Y-89988705D01*
X137625521Y-89734674D01*
X137508604Y-89452410D01*
X137449000Y-89152760D01*
X137449000Y-88847240D01*
X137508604Y-88547590D01*
X137625521Y-88265326D01*
X137795259Y-88011295D01*
X138011295Y-87795259D01*
X138265326Y-87625521D01*
X138547590Y-87508604D01*
X138725754Y-87473165D01*
X138847239Y-87449000D01*
X139152761Y-87449000D01*
X139274246Y-87473165D01*
X139274246Y-87473165D01*
G37*
G36*
X122301000Y-89951000D02*
G01*
X121299000Y-89951000D01*
X121299000Y-89049000D01*
X122301000Y-89049000D01*
X122301000Y-89951000D01*
X122301000Y-89951000D01*
G37*
G36*
X135281802Y-86474668D02*
G01*
X135452410Y-86508604D01*
X135734674Y-86625521D01*
X135988705Y-86795259D01*
X136204741Y-87011295D01*
X136374479Y-87265326D01*
X136491396Y-87547590D01*
X136551000Y-87847240D01*
X136551000Y-88152760D01*
X136491396Y-88452410D01*
X136374479Y-88734674D01*
X136204741Y-88988705D01*
X135988705Y-89204741D01*
X135734674Y-89374479D01*
X135452410Y-89491396D01*
X135302585Y-89521198D01*
X135152761Y-89551000D01*
X134847239Y-89551000D01*
X134697415Y-89521198D01*
X134547590Y-89491396D01*
X134265326Y-89374479D01*
X134011295Y-89204741D01*
X133795259Y-88988705D01*
X133625521Y-88734674D01*
X133508604Y-88452410D01*
X133449000Y-88152760D01*
X133449000Y-87847240D01*
X133508604Y-87547590D01*
X133625521Y-87265326D01*
X133795259Y-87011295D01*
X134011295Y-86795259D01*
X134265326Y-86625521D01*
X134547590Y-86508604D01*
X134718198Y-86474668D01*
X134847239Y-86449000D01*
X135152761Y-86449000D01*
X135281802Y-86474668D01*
X135281802Y-86474668D01*
G37*
G36*
X124301000Y-89001000D02*
G01*
X123299000Y-89001000D01*
X123299000Y-88099000D01*
X124301000Y-88099000D01*
X124301000Y-89001000D01*
X124301000Y-89001000D01*
G37*
G36*
X113525331Y-85268211D02*
G01*
X113853092Y-85403974D01*
X114148070Y-85601072D01*
X114398928Y-85851930D01*
X114596026Y-86146908D01*
X114731789Y-86474669D01*
X114801000Y-86822616D01*
X114801000Y-87177384D01*
X114731789Y-87525331D01*
X114596026Y-87853092D01*
X114398928Y-88148070D01*
X114148070Y-88398928D01*
X113853092Y-88596026D01*
X113525331Y-88731789D01*
X113177384Y-88801000D01*
X112822616Y-88801000D01*
X112474669Y-88731789D01*
X112146908Y-88596026D01*
X111851930Y-88398928D01*
X111601072Y-88148070D01*
X111403974Y-87853092D01*
X111268211Y-87525331D01*
X111199000Y-87177384D01*
X111199000Y-86822616D01*
X111268211Y-86474669D01*
X111403974Y-86146908D01*
X111601072Y-85851930D01*
X111851930Y-85601072D01*
X112146908Y-85403974D01*
X112474669Y-85268211D01*
X112822616Y-85199000D01*
X113177384Y-85199000D01*
X113525331Y-85268211D01*
X113525331Y-85268211D01*
G37*
G36*
X119052585Y-85478802D02*
G01*
X119202410Y-85508604D01*
X119484674Y-85625521D01*
X119738705Y-85795259D01*
X119954741Y-86011295D01*
X120124479Y-86265326D01*
X120241396Y-86547590D01*
X120301000Y-86847240D01*
X120301000Y-87152760D01*
X120241396Y-87452410D01*
X120124479Y-87734674D01*
X119954741Y-87988705D01*
X119738705Y-88204741D01*
X119484674Y-88374479D01*
X119202410Y-88491396D01*
X119052585Y-88521198D01*
X118902761Y-88551000D01*
X118597239Y-88551000D01*
X118447415Y-88521198D01*
X118297590Y-88491396D01*
X118015326Y-88374479D01*
X117761295Y-88204741D01*
X117545259Y-87988705D01*
X117375521Y-87734674D01*
X117258604Y-87452410D01*
X117199000Y-87152760D01*
X117199000Y-86847240D01*
X117258604Y-86547590D01*
X117375521Y-86265326D01*
X117545259Y-86011295D01*
X117761295Y-85795259D01*
X118015326Y-85625521D01*
X118297590Y-85508604D01*
X118447415Y-85478802D01*
X118597239Y-85449000D01*
X118902761Y-85449000D01*
X119052585Y-85478802D01*
X119052585Y-85478802D01*
G37*
G36*
X107552585Y-85478802D02*
G01*
X107702410Y-85508604D01*
X107984674Y-85625521D01*
X108238705Y-85795259D01*
X108454741Y-86011295D01*
X108624479Y-86265326D01*
X108741396Y-86547590D01*
X108801000Y-86847240D01*
X108801000Y-87152760D01*
X108741396Y-87452410D01*
X108624479Y-87734674D01*
X108454741Y-87988705D01*
X108238705Y-88204741D01*
X107984674Y-88374479D01*
X107702410Y-88491396D01*
X107552585Y-88521198D01*
X107402761Y-88551000D01*
X107097239Y-88551000D01*
X106947415Y-88521198D01*
X106797590Y-88491396D01*
X106515326Y-88374479D01*
X106261295Y-88204741D01*
X106045259Y-87988705D01*
X105875521Y-87734674D01*
X105758604Y-87452410D01*
X105699000Y-87152760D01*
X105699000Y-86847240D01*
X105758604Y-86547590D01*
X105875521Y-86265326D01*
X106045259Y-86011295D01*
X106261295Y-85795259D01*
X106515326Y-85625521D01*
X106797590Y-85508604D01*
X106947415Y-85478802D01*
X107097239Y-85449000D01*
X107402761Y-85449000D01*
X107552585Y-85478802D01*
X107552585Y-85478802D01*
G37*
G36*
X102701000Y-88401000D02*
G01*
X101699000Y-88401000D01*
X101699000Y-87499000D01*
X102701000Y-87499000D01*
X102701000Y-88401000D01*
X102701000Y-88401000D01*
G37*
G36*
X129480273Y-86842462D02*
G01*
X128842462Y-87480273D01*
X128133941Y-86771752D01*
X128771752Y-86133941D01*
X129480273Y-86842462D01*
X129480273Y-86842462D01*
G37*
G36*
X141873166Y-86764645D02*
G01*
X141164645Y-87473166D01*
X140526834Y-86835355D01*
X141235355Y-86126834D01*
X141873166Y-86764645D01*
X141873166Y-86764645D01*
G37*
G36*
X104701000Y-87451000D02*
G01*
X103699000Y-87451000D01*
X103699000Y-86549000D01*
X104701000Y-86549000D01*
X104701000Y-87451000D01*
X104701000Y-87451000D01*
G37*
G36*
X127394308Y-86100000D02*
G01*
X126756497Y-86737811D01*
X126047976Y-86029290D01*
X126685787Y-85391479D01*
X127394308Y-86100000D01*
X127394308Y-86100000D01*
G37*
G36*
X143959131Y-86022183D02*
G01*
X143250610Y-86730704D01*
X142612799Y-86092893D01*
X143321320Y-85384372D01*
X143959131Y-86022183D01*
X143959131Y-86022183D01*
G37*
G36*
X102701000Y-86501000D02*
G01*
X101699000Y-86501000D01*
X101699000Y-85599000D01*
X102701000Y-85599000D01*
X102701000Y-86501000D01*
X102701000Y-86501000D01*
G37*
G36*
X124301000Y-86401000D02*
G01*
X123299000Y-86401000D01*
X123299000Y-85499000D01*
X124301000Y-85499000D01*
X124301000Y-86401000D01*
X124301000Y-86401000D01*
G37*
G36*
X122301000Y-85451000D02*
G01*
X121299000Y-85451000D01*
X121299000Y-84549000D01*
X122301000Y-84549000D01*
X122301000Y-85451000D01*
X122301000Y-85451000D01*
G37*
G36*
X128737811Y-84756497D02*
G01*
X128100000Y-85394308D01*
X127391479Y-84685787D01*
X128029290Y-84047976D01*
X128737811Y-84756497D01*
X128737811Y-84756497D01*
G37*
G36*
X142615628Y-84678680D02*
G01*
X141907107Y-85387201D01*
X141269296Y-84749390D01*
X141977817Y-84040869D01*
X142615628Y-84678680D01*
X142615628Y-84678680D01*
G37*
G36*
X135451000Y-84601000D02*
G01*
X134549000Y-84601000D01*
X134549000Y-83599000D01*
X135451000Y-83599000D01*
X135451000Y-84601000D01*
X135451000Y-84601000D01*
G37*
G36*
X124301000Y-84501000D02*
G01*
X123299000Y-84501000D01*
X123299000Y-83599000D01*
X124301000Y-83599000D01*
X124301000Y-84501000D01*
X124301000Y-84501000D01*
G37*
G36*
X119052585Y-80978802D02*
G01*
X119202410Y-81008604D01*
X119484674Y-81125521D01*
X119738705Y-81295259D01*
X119954741Y-81511295D01*
X120124479Y-81765326D01*
X120241396Y-82047590D01*
X120301000Y-82347240D01*
X120301000Y-82652760D01*
X120241396Y-82952410D01*
X120124479Y-83234674D01*
X119954741Y-83488705D01*
X119738705Y-83704741D01*
X119484674Y-83874479D01*
X119202410Y-83991396D01*
X119052585Y-84021198D01*
X118902761Y-84051000D01*
X118597239Y-84051000D01*
X118447415Y-84021198D01*
X118297590Y-83991396D01*
X118015326Y-83874479D01*
X117761295Y-83704741D01*
X117545259Y-83488705D01*
X117375521Y-83234674D01*
X117258604Y-82952410D01*
X117199000Y-82652760D01*
X117199000Y-82347240D01*
X117258604Y-82047590D01*
X117375521Y-81765326D01*
X117545259Y-81511295D01*
X117761295Y-81295259D01*
X118015326Y-81125521D01*
X118297590Y-81008604D01*
X118447415Y-80978802D01*
X118597239Y-80949000D01*
X118902761Y-80949000D01*
X119052585Y-80978802D01*
X119052585Y-80978802D01*
G37*
G36*
X107552585Y-80978802D02*
G01*
X107702410Y-81008604D01*
X107984674Y-81125521D01*
X108238705Y-81295259D01*
X108454741Y-81511295D01*
X108624479Y-81765326D01*
X108741396Y-82047590D01*
X108801000Y-82347240D01*
X108801000Y-82652760D01*
X108741396Y-82952410D01*
X108624479Y-83234674D01*
X108454741Y-83488705D01*
X108238705Y-83704741D01*
X107984674Y-83874479D01*
X107702410Y-83991396D01*
X107552585Y-84021198D01*
X107402761Y-84051000D01*
X107097239Y-84051000D01*
X106947415Y-84021198D01*
X106797590Y-83991396D01*
X106515326Y-83874479D01*
X106261295Y-83704741D01*
X106045259Y-83488705D01*
X105875521Y-83234674D01*
X105758604Y-82952410D01*
X105699000Y-82652760D01*
X105699000Y-82347240D01*
X105758604Y-82047590D01*
X105875521Y-81765326D01*
X106045259Y-81511295D01*
X106261295Y-81295259D01*
X106515326Y-81125521D01*
X106797590Y-81008604D01*
X106947415Y-80978802D01*
X107097239Y-80949000D01*
X107402761Y-80949000D01*
X107552585Y-80978802D01*
X107552585Y-80978802D01*
G37*
G36*
X102701000Y-83901000D02*
G01*
X101699000Y-83901000D01*
X101699000Y-82999000D01*
X102701000Y-82999000D01*
X102701000Y-83901000D01*
X102701000Y-83901000D01*
G37*
G36*
X104701000Y-82951000D02*
G01*
X103699000Y-82951000D01*
X103699000Y-82049000D01*
X104701000Y-82049000D01*
X104701000Y-82951000D01*
X104701000Y-82951000D01*
G37*
G36*
X134501000Y-82601000D02*
G01*
X133599000Y-82601000D01*
X133599000Y-81599000D01*
X134501000Y-81599000D01*
X134501000Y-82601000D01*
X134501000Y-82601000D01*
G37*
G36*
X136401000Y-82601000D02*
G01*
X135499000Y-82601000D01*
X135499000Y-81599000D01*
X136401000Y-81599000D01*
X136401000Y-82601000D01*
X136401000Y-82601000D01*
G37*
G36*
X152110443Y-80645519D02*
G01*
X152176627Y-80652037D01*
X152346466Y-80703557D01*
X152502991Y-80787222D01*
X152538729Y-80816552D01*
X152640186Y-80899814D01*
X152721585Y-80999000D01*
X152752778Y-81037009D01*
X152836443Y-81193534D01*
X152887963Y-81363373D01*
X152905359Y-81540000D01*
X152887963Y-81716627D01*
X152836443Y-81886466D01*
X152752778Y-82042991D01*
X152723448Y-82078729D01*
X152640186Y-82180186D01*
X152567480Y-82239853D01*
X152502991Y-82292778D01*
X152346466Y-82376443D01*
X152176627Y-82427963D01*
X152110442Y-82434482D01*
X152044260Y-82441000D01*
X151955740Y-82441000D01*
X151889558Y-82434482D01*
X151823373Y-82427963D01*
X151653534Y-82376443D01*
X151497009Y-82292778D01*
X151432520Y-82239853D01*
X151359814Y-82180186D01*
X151276552Y-82078729D01*
X151247222Y-82042991D01*
X151163557Y-81886466D01*
X151112037Y-81716627D01*
X151094641Y-81540000D01*
X151112037Y-81363373D01*
X151163557Y-81193534D01*
X151247222Y-81037009D01*
X151278415Y-80999000D01*
X151359814Y-80899814D01*
X151461271Y-80816552D01*
X151497009Y-80787222D01*
X151653534Y-80703557D01*
X151823373Y-80652037D01*
X151889557Y-80645519D01*
X151955740Y-80639000D01*
X152044260Y-80639000D01*
X152110443Y-80645519D01*
X152110443Y-80645519D01*
G37*
G36*
X96113512Y-80643927D02*
G01*
X96262812Y-80673624D01*
X96426784Y-80741544D01*
X96574354Y-80840147D01*
X96699853Y-80965646D01*
X96798456Y-81113216D01*
X96866376Y-81277188D01*
X96901000Y-81451259D01*
X96901000Y-81628741D01*
X96866376Y-81802812D01*
X96798456Y-81966784D01*
X96699853Y-82114354D01*
X96574354Y-82239853D01*
X96426784Y-82338456D01*
X96262812Y-82406376D01*
X96113512Y-82436073D01*
X96088742Y-82441000D01*
X95911258Y-82441000D01*
X95886488Y-82436073D01*
X95737188Y-82406376D01*
X95573216Y-82338456D01*
X95425646Y-82239853D01*
X95300147Y-82114354D01*
X95201544Y-81966784D01*
X95133624Y-81802812D01*
X95099000Y-81628741D01*
X95099000Y-81451259D01*
X95133624Y-81277188D01*
X95201544Y-81113216D01*
X95300147Y-80965646D01*
X95425646Y-80840147D01*
X95573216Y-80741544D01*
X95737188Y-80673624D01*
X95886488Y-80643927D01*
X95911258Y-80639000D01*
X96088742Y-80639000D01*
X96113512Y-80643927D01*
X96113512Y-80643927D01*
G37*
G36*
X102701000Y-82001000D02*
G01*
X101699000Y-82001000D01*
X101699000Y-81099000D01*
X102701000Y-81099000D01*
X102701000Y-82001000D01*
X102701000Y-82001000D01*
G37*
G36*
X124301000Y-81901000D02*
G01*
X123299000Y-81901000D01*
X123299000Y-80999000D01*
X124301000Y-80999000D01*
X124301000Y-81901000D01*
X124301000Y-81901000D01*
G37*
G36*
X122301000Y-80951000D02*
G01*
X121299000Y-80951000D01*
X121299000Y-80049000D01*
X122301000Y-80049000D01*
X122301000Y-80951000D01*
X122301000Y-80951000D01*
G37*
G36*
X117302585Y-77478802D02*
G01*
X117452410Y-77508604D01*
X117734674Y-77625521D01*
X117988705Y-77795259D01*
X118204741Y-78011295D01*
X118374479Y-78265326D01*
X118491396Y-78547590D01*
X118551000Y-78847240D01*
X118551000Y-79152760D01*
X118491396Y-79452410D01*
X118374479Y-79734674D01*
X118204741Y-79988705D01*
X117988705Y-80204741D01*
X117734674Y-80374479D01*
X117452410Y-80491396D01*
X117302585Y-80521198D01*
X117152761Y-80551000D01*
X116847239Y-80551000D01*
X116697415Y-80521198D01*
X116547590Y-80491396D01*
X116265326Y-80374479D01*
X116011295Y-80204741D01*
X115795259Y-79988705D01*
X115625521Y-79734674D01*
X115508604Y-79452410D01*
X115449000Y-79152760D01*
X115449000Y-78847240D01*
X115508604Y-78547590D01*
X115625521Y-78265326D01*
X115795259Y-78011295D01*
X116011295Y-77795259D01*
X116265326Y-77625521D01*
X116547590Y-77508604D01*
X116697415Y-77478802D01*
X116847239Y-77449000D01*
X117152761Y-77449000D01*
X117302585Y-77478802D01*
X117302585Y-77478802D01*
G37*
G36*
X109302585Y-77478802D02*
G01*
X109452410Y-77508604D01*
X109734674Y-77625521D01*
X109988705Y-77795259D01*
X110204741Y-78011295D01*
X110374479Y-78265326D01*
X110491396Y-78547590D01*
X110551000Y-78847240D01*
X110551000Y-79152760D01*
X110491396Y-79452410D01*
X110374479Y-79734674D01*
X110204741Y-79988705D01*
X109988705Y-80204741D01*
X109734674Y-80374479D01*
X109452410Y-80491396D01*
X109302585Y-80521198D01*
X109152761Y-80551000D01*
X108847239Y-80551000D01*
X108697415Y-80521198D01*
X108547590Y-80491396D01*
X108265326Y-80374479D01*
X108011295Y-80204741D01*
X107795259Y-79988705D01*
X107625521Y-79734674D01*
X107508604Y-79452410D01*
X107449000Y-79152760D01*
X107449000Y-78847240D01*
X107508604Y-78547590D01*
X107625521Y-78265326D01*
X107795259Y-78011295D01*
X108011295Y-77795259D01*
X108265326Y-77625521D01*
X108547590Y-77508604D01*
X108697415Y-77478802D01*
X108847239Y-77449000D01*
X109152761Y-77449000D01*
X109302585Y-77478802D01*
X109302585Y-77478802D01*
G37*
G36*
X124301000Y-80001000D02*
G01*
X123299000Y-80001000D01*
X123299000Y-79099000D01*
X124301000Y-79099000D01*
X124301000Y-80001000D01*
X124301000Y-80001000D01*
G37*
G36*
X96110442Y-78105518D02*
G01*
X96176627Y-78112037D01*
X96346466Y-78163557D01*
X96502991Y-78247222D01*
X96525053Y-78265328D01*
X96640186Y-78359814D01*
X96716176Y-78452410D01*
X96752778Y-78497009D01*
X96836443Y-78653534D01*
X96887963Y-78823373D01*
X96905359Y-79000000D01*
X96887963Y-79176627D01*
X96836443Y-79346466D01*
X96752778Y-79502991D01*
X96723448Y-79538729D01*
X96640186Y-79640186D01*
X96567480Y-79699853D01*
X96502991Y-79752778D01*
X96346466Y-79836443D01*
X96176627Y-79887963D01*
X96110442Y-79894482D01*
X96044260Y-79901000D01*
X95955740Y-79901000D01*
X95889558Y-79894482D01*
X95823373Y-79887963D01*
X95653534Y-79836443D01*
X95497009Y-79752778D01*
X95432520Y-79699853D01*
X95359814Y-79640186D01*
X95276552Y-79538729D01*
X95247222Y-79502991D01*
X95163557Y-79346466D01*
X95112037Y-79176627D01*
X95094641Y-79000000D01*
X95112037Y-78823373D01*
X95163557Y-78653534D01*
X95247222Y-78497009D01*
X95283824Y-78452410D01*
X95359814Y-78359814D01*
X95474947Y-78265328D01*
X95497009Y-78247222D01*
X95653534Y-78163557D01*
X95823373Y-78112037D01*
X95889558Y-78105518D01*
X95955740Y-78099000D01*
X96044260Y-78099000D01*
X96110442Y-78105518D01*
X96110442Y-78105518D01*
G37*
G36*
X152113512Y-78103927D02*
G01*
X152262812Y-78133624D01*
X152426784Y-78201544D01*
X152574354Y-78300147D01*
X152699853Y-78425646D01*
X152798456Y-78573216D01*
X152866376Y-78737188D01*
X152883519Y-78823375D01*
X152901000Y-78911258D01*
X152901000Y-79088742D01*
X152896073Y-79113512D01*
X152866376Y-79262812D01*
X152798456Y-79426784D01*
X152699853Y-79574354D01*
X152574354Y-79699853D01*
X152426784Y-79798456D01*
X152262812Y-79866376D01*
X152113512Y-79896073D01*
X152088742Y-79901000D01*
X151911258Y-79901000D01*
X151886488Y-79896073D01*
X151737188Y-79866376D01*
X151573216Y-79798456D01*
X151425646Y-79699853D01*
X151300147Y-79574354D01*
X151201544Y-79426784D01*
X151133624Y-79262812D01*
X151103927Y-79113512D01*
X151099000Y-79088742D01*
X151099000Y-78911258D01*
X151116481Y-78823375D01*
X151133624Y-78737188D01*
X151201544Y-78573216D01*
X151300147Y-78425646D01*
X151425646Y-78300147D01*
X151573216Y-78201544D01*
X151737188Y-78133624D01*
X151886488Y-78103927D01*
X151911258Y-78099000D01*
X152088742Y-78099000D01*
X152113512Y-78103927D01*
X152113512Y-78103927D01*
G37*
G36*
X113302585Y-76478802D02*
G01*
X113452410Y-76508604D01*
X113734674Y-76625521D01*
X113988705Y-76795259D01*
X114204741Y-77011295D01*
X114374479Y-77265326D01*
X114491396Y-77547590D01*
X114491396Y-77547591D01*
X114551000Y-77847239D01*
X114551000Y-78152761D01*
X114548852Y-78163558D01*
X114491396Y-78452410D01*
X114374479Y-78734674D01*
X114204741Y-78988705D01*
X113988705Y-79204741D01*
X113734674Y-79374479D01*
X113452410Y-79491396D01*
X113302585Y-79521198D01*
X113152761Y-79551000D01*
X112847239Y-79551000D01*
X112697415Y-79521198D01*
X112547590Y-79491396D01*
X112265326Y-79374479D01*
X112011295Y-79204741D01*
X111795259Y-78988705D01*
X111625521Y-78734674D01*
X111508604Y-78452410D01*
X111451148Y-78163558D01*
X111449000Y-78152761D01*
X111449000Y-77847239D01*
X111508604Y-77547591D01*
X111508604Y-77547590D01*
X111625521Y-77265326D01*
X111795259Y-77011295D01*
X112011295Y-76795259D01*
X112265326Y-76625521D01*
X112547590Y-76508604D01*
X112697415Y-76478802D01*
X112847239Y-76449000D01*
X113152761Y-76449000D01*
X113302585Y-76478802D01*
X113302585Y-76478802D01*
G37*
G36*
X107373166Y-77135355D02*
G01*
X106735355Y-77773166D01*
X106026834Y-77064645D01*
X106664645Y-76426834D01*
X107373166Y-77135355D01*
X107373166Y-77135355D01*
G37*
G36*
X119966059Y-77064645D02*
G01*
X119257538Y-77773166D01*
X118619727Y-77135355D01*
X119328248Y-76426834D01*
X119966059Y-77064645D01*
X119966059Y-77064645D01*
G37*
G36*
X122052024Y-76322183D02*
G01*
X121343503Y-77030704D01*
X120705692Y-76392893D01*
X121414213Y-75684372D01*
X122052024Y-76322183D01*
X122052024Y-76322183D01*
G37*
G36*
X105287201Y-76392893D02*
G01*
X104649390Y-77030704D01*
X103940869Y-76322183D01*
X104578680Y-75684372D01*
X105287201Y-76392893D01*
X105287201Y-76392893D01*
G37*
G36*
X120708521Y-74978680D02*
G01*
X120000000Y-75687201D01*
X119362189Y-75049390D01*
X120070710Y-74340869D01*
X120708521Y-74978680D01*
X120708521Y-74978680D01*
G37*
G36*
X106630704Y-75049390D02*
G01*
X105992893Y-75687201D01*
X105284372Y-74978680D01*
X105922183Y-74340869D01*
X106630704Y-75049390D01*
X106630704Y-75049390D01*
G37*
G36*
X113451000Y-74601000D02*
G01*
X112549000Y-74601000D01*
X112549000Y-73599000D01*
X113451000Y-73599000D01*
X113451000Y-74601000D01*
X113451000Y-74601000D01*
G37*
G36*
X98889943Y-68066248D02*
G01*
X99445189Y-68296238D01*
X99693347Y-68462052D01*
X99944899Y-68630134D01*
X100369866Y-69055101D01*
X100518440Y-69277458D01*
X100703762Y-69554811D01*
X100933752Y-70110057D01*
X101051000Y-70699501D01*
X101051000Y-71300499D01*
X100933752Y-71889943D01*
X100703762Y-72445189D01*
X100703761Y-72445190D01*
X100369866Y-72944899D01*
X99944899Y-73369866D01*
X99804573Y-73463629D01*
X99445189Y-73703762D01*
X98889943Y-73933752D01*
X98300499Y-74051000D01*
X97699501Y-74051000D01*
X97110057Y-73933752D01*
X96554811Y-73703762D01*
X96195427Y-73463629D01*
X96055101Y-73369866D01*
X95630134Y-72944899D01*
X95296239Y-72445190D01*
X95296238Y-72445189D01*
X95066248Y-71889943D01*
X94949000Y-71300499D01*
X94949000Y-70699501D01*
X95066248Y-70110057D01*
X95296238Y-69554811D01*
X95481560Y-69277458D01*
X95630134Y-69055101D01*
X96055101Y-68630134D01*
X96306653Y-68462052D01*
X96554811Y-68296238D01*
X97110057Y-68066248D01*
X97699501Y-67949000D01*
X98300499Y-67949000D01*
X98889943Y-68066248D01*
X98889943Y-68066248D01*
G37*
G36*
X150889943Y-68066248D02*
G01*
X151445189Y-68296238D01*
X151693347Y-68462052D01*
X151944899Y-68630134D01*
X152369866Y-69055101D01*
X152518440Y-69277458D01*
X152703762Y-69554811D01*
X152933752Y-70110057D01*
X153051000Y-70699501D01*
X153051000Y-71300499D01*
X152933752Y-71889943D01*
X152703762Y-72445189D01*
X152703761Y-72445190D01*
X152369866Y-72944899D01*
X151944899Y-73369866D01*
X151804573Y-73463629D01*
X151445189Y-73703762D01*
X150889943Y-73933752D01*
X150300499Y-74051000D01*
X149699501Y-74051000D01*
X149110057Y-73933752D01*
X148554811Y-73703762D01*
X148195427Y-73463629D01*
X148055101Y-73369866D01*
X147630134Y-72944899D01*
X147296239Y-72445190D01*
X147296238Y-72445189D01*
X147066248Y-71889943D01*
X146949000Y-71300499D01*
X146949000Y-70699501D01*
X147066248Y-70110057D01*
X147296238Y-69554811D01*
X147481560Y-69277458D01*
X147630134Y-69055101D01*
X148055101Y-68630134D01*
X148306653Y-68462052D01*
X148554811Y-68296238D01*
X149110057Y-68066248D01*
X149699501Y-67949000D01*
X150300499Y-67949000D01*
X150889943Y-68066248D01*
X150889943Y-68066248D01*
G37*
G36*
X114401000Y-72601000D02*
G01*
X113499000Y-72601000D01*
X113499000Y-71599000D01*
X114401000Y-71599000D01*
X114401000Y-72601000D01*
X114401000Y-72601000D01*
G37*
G36*
X112501000Y-72601000D02*
G01*
X111599000Y-72601000D01*
X111599000Y-71599000D01*
X112501000Y-71599000D01*
X112501000Y-72601000D01*
X112501000Y-72601000D01*
G37*
M02*
